<?xml version="1.0" standalone="no"?>
<!DOCTYPE svg PUBLIC "-//W3C//DTD SVG 20010904//EN"
 "http://www.w3.org/TR/2001/REC-SVG-20010904/DTD/svg10.dtd">
<svg version="1.0" xmlns="http://www.w3.org/2000/svg"
 width="640.000000pt" height="640.000000pt" viewBox="0 0 640.000000 640.000000"
 preserveAspectRatio="xMidYMid meet">

<g transform="translate(0.000000,640.000000) scale(0.100000,-0.100000)"
fill="#000000" stroke="none">
<path d="M1940 6385 c-14 -8 -31 -14 -38 -15 -16 0 -242 -107 -262 -124 -8 -7
-31 -19 -50 -26 -32 -12 -65 -32 -260 -154 -80 -50 -153 -102 -192 -138 -16
-16 -32 -28 -34 -28 -15 0 -196 -162 -315 -280 -147 -147 -259 -280 -356 -423
-35 -51 -75 -110 -90 -132 -16 -21 -32 -46 -36 -55 -4 -8 -23 -40 -42 -70 -18
-30 -61 -111 -95 -180 -34 -69 -65 -132 -70 -141 -4 -9 -28 -61 -52 -115 l-43
-99 -3 -1185 c-3 -1214 -2 -1240 35 -1295 7 -11 13 -25 13 -32 0 -22 162 -358
197 -410 11 -16 25 -39 31 -53 20 -39 100 -164 129 -200 7 -8 37 -49 67 -90
62 -85 94 -126 116 -149 8 -9 25 -30 38 -46 30 -39 201 -213 284 -290 112
-104 126 -115 137 -115 6 0 11 -3 11 -7 0 -17 241 -193 352 -258 124 -72 234
-134 283 -158 17 -8 53 -26 80 -40 28 -14 81 -37 119 -51 l68 -26 572 2 c345
0 528 4 461 8 -422 28 -829 141 -1229 341 -191 96 -410 241 -621 412 -45 37
-258 247 -331 327 -118 129 -290 373 -385 545 -48 87 -149 293 -149 303 0 5
-14 39 -30 76 -41 89 -44 136 -10 152 22 11 280 81 388 106 55 13 75 0 122
-77 19 -31 49 -74 65 -94 17 -21 46 -57 65 -81 188 -237 423 -440 735 -635 72
-45 325 -175 341 -175 7 0 38 -12 70 -26 139 -61 181 -74 414 -134 189 -47
381 -75 630 -90 442 -26 1019 73 1377 236 17 8 34 14 38 14 32 0 413 214 505
283 30 23 72 53 92 67 174 118 469 425 596 618 20 31 46 67 58 80 26 29 10 32
369 -63 54 -14 105 -31 113 -37 17 -15 11 -49 -24 -138 -103 -261 -291 -591
-449 -785 -163 -202 -393 -436 -505 -516 -25 -17 -52 -39 -61 -48 -9 -9 -26
-23 -39 -31 -12 -8 -47 -33 -78 -55 -255 -182 -601 -353 -882 -436 -36 -10
-87 -26 -115 -34 -193 -56 -488 -101 -715 -108 -47 -2 191 -4 527 -5 l613 -2
62 24 c75 28 374 180 438 221 66 43 73 48 116 72 22 12 48 30 59 40 27 23 112
83 119 83 15 0 222 183 350 309 164 161 221 227 374 431 56 76 182 271 182
283 0 6 6 18 14 26 17 20 117 213 161 314 l35 78 -1 467 c-1 306 -4 448 -10
412 -5 -30 -18 -104 -30 -165 -19 -100 -28 -138 -57 -245 -6 -19 -13 -47 -16
-61 -11 -49 -18 -48 -364 46 -57 16 -106 34 -109 41 -3 7 18 66 45 131 62 146
88 230 112 357 21 113 15 146 -24 146 -39 0 -46 -19 -66 -160 -16 -121 -145
-434 -182 -443 -11 -3 -73 8 -137 25 -64 16 -132 34 -151 38 -19 5 -66 18
-105 30 -38 11 -95 27 -125 34 -30 7 -122 32 -205 56 -82 23 -175 48 -207 55
-31 7 -61 15 -66 19 -5 3 -38 12 -73 20 -35 8 -115 29 -178 47 -129 36 -169
34 -163 -11 2 -14 7 -29 12 -33 8 -9 267 -81 575 -162 319 -84 430 -113 505
-135 41 -12 108 -30 149 -41 68 -18 111 -41 111 -59 0 -9 -57 -93 -114 -170
-137 -184 -409 -435 -626 -580 -117 -77 -320 -190 -430 -239 -25 -10 -66 -29
-92 -40 -26 -12 -52 -21 -58 -21 -7 0 -26 -6 -43 -14 -47 -21 -213 -71 -352
-106 -204 -51 -628 -88 -654 -56 -8 10 -11 330 -9 1230 3 1327 -1 1235 58
1236 25 0 107 31 169 64 54 28 139 115 175 176 57 97 69 143 75 289 l6 133
185 2 c204 1 233 7 368 72 144 70 265 190 344 339 31 60 88 241 88 282 0 61
35 66 186 28 92 -23 164 -47 241 -81 17 -8 34 -14 39 -14 15 0 200 -93 274
-138 101 -60 244 -159 294 -202 74 -64 248 -235 258 -253 19 -35 -3 -46 -297
-147 -247 -86 -260 -90 -277 -100 -10 -6 -22 -10 -27 -10 -5 0 -22 -5 -38 -11
-59 -24 -250 -91 -288 -101 -22 -6 -45 -14 -50 -19 -6 -4 -51 -21 -100 -38
-50 -16 -178 -61 -285 -100 -107 -38 -240 -86 -294 -105 -104 -37 -118 -48
-114 -81 3 -18 10 -20 60 -19 32 1 63 6 70 12 12 10 44 22 303 112 61 22 175
62 255 91 80 28 219 77 310 109 91 31 248 87 350 124 102 37 210 76 240 86 30
10 93 32 140 49 47 17 95 31 107 31 26 0 70 -51 137 -160 62 -101 164 -308
169 -345 2 -16 5 183 6 444 l1 473 -78 162 c-83 172 -164 311 -266 460 -63 94
-146 207 -157 216 -3 3 -35 39 -70 80 -82 97 -288 303 -359 360 -30 24 -59 48
-65 54 -16 18 -105 90 -130 106 -13 8 -82 54 -153 103 -71 48 -133 87 -137 87
-4 0 -22 10 -39 23 -33 25 -330 174 -406 204 -42 17 -125 18 -1310 20 -1083 2
-1269 0 -1290 -12z m1715 -33 c22 -6 69 -16 105 -21 36 -5 97 -17 135 -26 39
-8 88 -19 110 -24 22 -5 72 -21 110 -34 39 -14 86 -28 105 -32 19 -4 40 -11
45 -15 6 -4 24 -10 40 -14 29 -7 58 -19 170 -71 28 -13 70 -33 95 -44 25 -12
52 -25 60 -30 8 -6 41 -22 72 -36 32 -15 60 -30 63 -36 4 -5 32 -22 63 -38 82
-41 109 -57 222 -141 56 -41 112 -82 124 -90 11 -8 26 -19 32 -25 6 -5 40 -35
75 -65 93 -80 159 -145 159 -156 0 -5 13 -18 30 -27 16 -10 42 -35 57 -55 16
-20 36 -43 45 -50 10 -7 38 -41 64 -75 45 -59 55 -71 104 -124 11 -13 20 -30
20 -38 0 -9 17 -34 38 -58 41 -46 47 -56 94 -140 58 -103 63 -111 84 -142 12
-16 29 -47 37 -67 9 -21 20 -38 25 -38 6 0 13 -20 16 -45 5 -27 12 -45 21 -45
15 0 28 -41 19 -64 -3 -9 7 -31 25 -53 20 -25 29 -45 25 -59 -3 -12 1 -26 10
-33 16 -14 22 -56 9 -64 -5 -3 -26 15 -48 40 -22 24 -50 56 -62 69 -13 14 -23
29 -23 34 0 5 -17 18 -39 29 -21 11 -49 33 -62 48 -13 15 -36 33 -51 40 -14 6
-29 20 -32 30 -3 10 -19 27 -36 36 -16 10 -30 22 -30 28 0 5 -11 9 -24 9 -13
0 -44 16 -70 36 -100 76 -279 179 -371 214 -11 4 -41 17 -68 29 -26 11 -57 21
-68 21 -11 0 -31 7 -45 16 -13 9 -46 21 -71 25 -26 5 -50 14 -54 20 -3 6 -35
15 -70 20 -81 11 -143 24 -156 32 -5 4 -13 44 -17 89 -18 224 -58 376 -143
541 -35 71 -120 187 -135 187 -4 0 -8 5 -8 11 0 6 -17 25 -37 42 -20 18 -48
43 -61 55 -32 31 -148 102 -167 102 -7 0 -16 4 -20 9 -3 5 -48 23 -101 40 -75
24 -113 31 -177 31 -244 -1 -432 -100 -563 -299 -75 -112 -83 -127 -89 -166
-14 -77 -58 -113 -71 -57 -12 49 -67 155 -121 235 -53 78 -127 150 -180 177
-16 8 -39 22 -53 31 -61 40 -160 61 -283 60 -80 -1 -129 -6 -153 -16 -20 -8
-46 -15 -58 -15 -11 0 -43 -12 -71 -25 -27 -14 -56 -25 -64 -25 -7 0 -30 -13
-50 -29 -20 -15 -45 -33 -57 -39 -29 -15 -184 -178 -184 -194 0 -4 -12 -22
-27 -40 -34 -40 -53 -73 -53 -92 0 -13 -20 -26 -40 -26 -5 0 -16 12 -24 28 -8
15 -15 22 -16 16 0 -7 -8 -14 -19 -17 -15 -3 -20 -18 -26 -65 -5 -46 -12 -65
-29 -78 -22 -15 -22 -19 -9 -45 14 -29 10 -54 -8 -44 -5 4 -14 3 -21 -1 -8 -5
-6 -11 6 -20 23 -16 12 -57 -12 -50 -15 5 -17 -4 -17 -67 0 -63 2 -72 18 -69
13 2 17 -4 17 -27 0 -29 -19 -55 -21 -29 -1 7 -5 -5 -9 -27 -4 -22 -4 -50 1
-63 10 -27 7 -29 -79 -35 -34 -3 -75 0 -91 6 -16 6 -36 7 -47 2 -17 -7 -18 -8
-1 -12 30 -8 18 -23 -18 -23 -19 0 -35 5 -35 10 0 6 5 10 11 10 5 0 7 5 3 12
-6 9 -9 9 -12 0 -2 -7 -22 -13 -45 -13 -23 -1 -34 -3 -24 -6 11 -3 16 -10 13
-20 -3 -8 -6 -19 -6 -24 0 -5 -6 -9 -14 -9 -7 0 -19 -6 -25 -14 -7 -8 -24 -17
-39 -20 -45 -11 -136 -49 -161 -68 -13 -10 -28 -18 -33 -18 -5 0 -16 -7 -24
-15 -9 -8 -26 -15 -38 -15 -13 0 -33 -9 -46 -20 -13 -11 -33 -20 -45 -20 -12
0 -32 -11 -44 -24 -13 -14 -35 -26 -50 -28 -14 -2 -24 -6 -21 -11 6 -8 -45
-37 -67 -37 -7 0 -13 7 -11 16 2 9 -5 21 -14 27 -13 9 -21 7 -37 -7 -15 -14
-30 -17 -56 -13 -21 3 -33 2 -30 -4 4 -5 2 -9 -3 -9 -12 0 -10 -85 1 -97 5 -4
13 -8 18 -8 10 0 10 -4 2 -35 -3 -11 -12 -20 -20 -20 -15 0 -65 -49 -59 -59 2
-3 -18 -23 -44 -43 l-48 -37 -6 25 c-8 30 -30 27 -34 -4 -2 -15 2 -22 12 -22
9 0 16 -4 16 -9 0 -17 -12 -41 -20 -41 -4 0 -24 -16 -43 -35 -19 -19 -39 -35
-45 -35 -19 0 -19 36 -1 59 11 13 19 38 19 57 0 23 6 37 20 44 10 6 22 26 26
45 3 19 10 35 14 35 4 0 12 12 18 28 5 15 22 39 37 54 15 15 24 32 20 38 -3 5
-2 10 4 10 5 0 11 19 13 42 3 38 6 43 28 43 22 0 26 5 31 42 3 23 12 50 20 60
13 17 30 45 53 88 6 11 21 31 34 45 13 14 29 32 37 41 8 9 15 22 15 30 1 25
47 72 64 66 11 -4 18 1 22 18 5 19 13 25 33 25 20 0 29 7 38 30 7 17 7 32 2
36 -16 10 -9 36 11 41 11 3 20 12 20 19 0 8 5 14 10 14 6 0 10 4 10 9 0 10 95
111 104 111 3 0 6 -9 6 -21 0 -17 4 -20 24 -15 30 7 41 -16 17 -38 -21 -19
-20 -65 2 -81 9 -7 17 -17 17 -24 0 -15 25 -14 50 2 17 10 22 9 29 -1 10 -16
41 -1 60 29 10 16 8 19 -11 20 -13 0 -17 3 -9 6 11 5 11 7 0 14 -10 6 -6 9 12
9 15 0 30 7 33 16 4 10 2 13 -6 8 -8 -5 -9 -2 -5 9 5 14 0 17 -31 17 -21 0
-43 -5 -50 -12 -8 -8 -21 -5 -52 17 -22 15 -41 30 -42 34 -6 26 -3 61 6 61 13
0 76 66 76 80 0 6 6 10 13 10 7 0 32 18 55 40 22 22 46 40 52 40 5 0 15 9 22
20 7 11 19 20 26 20 8 0 27 14 44 32 30 32 30 32 59 16 32 -19 35 -17 17 11
-9 15 -8 22 5 35 8 9 20 16 26 16 6 0 11 5 11 10 0 6 5 10 11 10 6 0 29 15 52
33 23 19 57 42 75 53 17 10 32 21 32 25 0 4 12 10 26 13 14 4 39 22 55 41 46
52 311 181 484 235 39 12 84 26 100 32 120 40 301 84 405 98 41 6 95 15 120
21 112 26 771 26 865 1z m-985 -270 c125 -23 236 -96 323 -210 45 -58 105
-175 127 -247 7 -22 17 -51 22 -65 20 -51 42 -259 42 -400 1 -327 -78 -575
-206 -648 -29 -16 -64 -39 -78 -51 -60 -52 -91 -84 -106 -110 -13 -22 -35 -34
-101 -56 -79 -26 -93 -27 -221 -23 -75 3 -148 10 -162 16 -14 6 -56 23 -95 38
-64 25 -130 65 -185 111 -41 34 -126 149 -160 213 -35 67 -51 120 -77 250 -22
113 -11 342 23 485 14 61 32 137 38 170 7 33 23 78 35 100 46 82 71 120 91
137 11 9 20 20 20 25 0 5 28 37 63 71 60 59 90 81 165 117 17 8 32 19 32 24 0
5 21 12 48 16 26 4 52 11 59 16 18 15 143 37 198 34 28 -1 75 -7 105 -13z
m1381 -18 c8 -6 34 -16 59 -23 154 -44 342 -214 422 -382 68 -143 80 -176 104
-286 40 -180 43 -323 10 -493 -60 -312 -216 -497 -502 -592 -59 -19 -90 -23
-209 -23 -173 0 -212 14 -304 110 -65 69 -162 145 -184 145 -7 0 -23 10 -34
23 -24 25 -83 132 -83 148 0 6 -6 25 -14 42 -7 18 -24 79 -37 137 -21 94 -24
126 -22 308 3 213 15 302 65 452 37 113 110 235 182 305 47 46 121 96 160 107
23 7 52 18 66 26 30 16 299 13 321 -4z m-2716 -1074 c-3 -5 -10 -10 -16 -10
-5 0 -9 5 -9 10 0 6 7 10 16 10 8 0 12 -4 9 -10z m352 -65 c15 -11 22 -30 27
-72 15 -122 85 -281 172 -387 100 -122 218 -202 371 -253 71 -24 93 -26 250
-28 95 -1 176 -4 179 -8 4 -4 6 -50 5 -103 -4 -185 67 -335 216 -451 43 -34
180 -93 215 -93 57 -1 53 87 56 -1239 l2 -1220 -22 -12 c-25 -14 -64 -13 -243
2 -112 9 -362 46 -377 55 -4 2 -26 8 -50 13 -79 16 -213 53 -223 61 -5 4 -26
11 -45 15 -19 4 -48 13 -65 20 -16 7 -55 23 -85 35 -179 73 -330 152 -505 266
-33 21 -68 43 -77 49 -100 59 -407 338 -508 460 -47 57 -115 150 -148 202 -46
71 -38 83 75 111 48 12 122 32 163 43 41 12 140 39 220 61 80 21 159 43 175
47 17 5 84 23 150 40 66 18 145 39 175 47 30 9 96 27 145 40 207 57 206 56
217 83 7 20 6 28 -8 38 -26 19 -41 17 -177 -21 -67 -19 -176 -49 -242 -66 -66
-17 -133 -35 -150 -40 -16 -4 -91 -24 -165 -44 -74 -20 -169 -45 -210 -57
-178 -50 -211 -59 -328 -89 -120 -32 -123 -32 -143 -14 -51 46 -148 307 -177
479 l-19 110 -34 0 -34 0 -3 -54 c-5 -94 54 -305 134 -477 41 -88 37 -109 -20
-123 -55 -12 -293 -78 -332 -91 -46 -15 -62 -12 -78 13 -18 27 -60 182 -76
282 -6 39 -16 84 -20 100 -12 41 -50 391 -50 463 0 32 5 63 12 70 16 16 93 15
362 -3 279 -19 707 -43 986 -55 118 -6 264 -14 323 -20 60 -6 181 -13 269 -17
149 -6 162 -5 174 12 43 58 2 72 -267 85 -123 6 -289 15 -369 20 -80 6 -271
17 -425 25 -849 44 -1017 55 -1043 72 -21 13 -22 19 -17 76 24 227 33 273 70
348 63 125 173 307 214 352 25 27 67 36 86 18 6 -5 33 -15 60 -24 28 -8 102
-33 165 -56 63 -23 153 -55 200 -71 47 -16 130 -45 185 -65 55 -20 125 -45
155 -55 30 -11 107 -38 170 -61 63 -22 183 -65 265 -94 221 -77 328 -116 350
-125 66 -29 180 -61 208 -58 28 3 32 7 35 36 2 19 -1 32 -8 32 -7 0 -26 7 -43
15 -18 8 -77 30 -132 49 -55 19 -152 53 -215 76 -63 23 -126 46 -140 50 -14 5
-77 27 -140 50 -63 23 -131 46 -150 51 -37 11 -241 85 -275 99 -11 5 -60 23
-110 40 -348 122 -517 180 -520 180 -10 0 -35 34 -35 48 0 18 165 183 261 260
108 86 122 97 189 144 98 67 338 182 520 249 45 16 194 57 225 62 17 2 35 5
40 6 6 0 20 -6 32 -14z m1566 -222 c18 -32 28 -115 15 -128 -12 -13 -69 -15
-89 -5 -25 14 -24 45 3 115 24 64 41 68 71 18z m-2583 -42 c0 -5 -7 -11 -15
-15 -8 -3 -15 -9 -14 -13 4 -23 -3 -33 -24 -33 -13 0 -26 3 -30 6 -9 9 22 52
41 57 29 8 42 7 42 -2z m2594 -322 c66 -44 78 -67 80 -149 l1 -70 -45 -45
c-74 -74 -158 -75 -236 -3 -77 71 -83 155 -16 227 37 40 94 68 143 70 14 0 47
-13 73 -30z"/>
<path d="M1646 5857 c-7 -31 18 -111 36 -115 26 -5 28 24 5 82 -24 61 -32 68
-41 33z"/>
<path d="M1608 5776 c-21 -5 -38 -13 -38 -18 0 -5 -11 -6 -25 -2 -14 3 -25 3
-25 -1 0 -11 41 -45 54 -45 33 1 56 15 65 43 6 16 10 31 9 32 -2 0 -20 -3 -40
-9z m12 -20 c0 -11 -19 -15 -25 -6 -3 5 1 10 9 10 9 0 16 -2 16 -4z"/>
<path d="M1422 5721 c-10 -6 -7 -10 14 -15 15 -4 30 -3 33 2 3 5 14 8 24 6 9
-1 15 2 11 7 -7 11 -64 12 -82 0z"/>
<path d="M1243 5597 c-7 -14 -9 -27 -7 -30 10 -9 43 5 49 21 3 9 3 13 -1 9 -4
-4 -12 0 -19 9 -10 14 -12 13 -22 -9z"/>
<path d="M1306 5532 c-3 -5 1 -9 9 -9 8 0 15 4 15 9 0 4 -4 8 -9 8 -6 0 -12
-4 -15 -8z"/>
<path d="M1500 5484 c0 -8 5 -12 10 -9 6 4 8 11 5 16 -9 14 -15 11 -15 -7z"/>
<path d="M1511 5404 c0 -11 3 -14 6 -6 3 7 2 16 -1 19 -3 4 -6 -2 -5 -13z"/>
<path d="M1452 5384 c1 -9 9 -19 16 -22 9 -3 13 2 10 14 -1 9 -9 19 -16 22 -9
3 -13 -2 -10 -14z"/>
<path d="M1440 5308 c0 -15 5 -18 23 -13 26 8 46 24 32 26 -49 7 -55 5 -55
-13z"/>
<path d="M1200 5263 c0 -22 2 -25 10 -13 13 20 13 40 0 40 -5 0 -10 -12 -10
-27z"/>
<path d="M1470 5185 c0 -8 5 -15 10 -15 6 0 10 7 10 15 0 8 -4 15 -10 15 -5 0
-10 -7 -10 -15z"/>
<path d="M1083 5104 c-8 -21 16 -35 39 -23 16 9 17 12 4 24 -19 19 -35 19 -43
-1z"/>
<path d="M1577 5104 c-9 -10 2 -24 19 -24 8 0 14 7 14 15 0 15 -21 21 -33 9z"/>
<path d="M948 5023 c-12 -15 -2 -47 12 -38 6 4 8 12 4 18 -3 7 1 4 10 -6 18
-23 48 -16 70 17 l15 24 -50 -2 c-28 0 -55 -7 -61 -13z"/>
<path d="M875 5010 c-4 -13 -2 -40 5 -61 13 -39 30 -52 30 -25 0 8 10 22 21
30 21 14 21 15 -15 21 -30 6 -34 10 -25 22 9 10 9 17 2 24 -8 8 -13 4 -18 -11z"/>
<path d="M705 4950 c-3 -5 1 -10 9 -10 8 0 18 5 21 10 3 6 -1 10 -9 10 -8 0
-18 -4 -21 -10z"/>
<path d="M780 4955 c0 -3 5 -14 12 -24 9 -15 16 -17 31 -10 10 6 24 8 31 6 7
-3 13 0 13 7 0 7 -14 11 -34 11 -18 -1 -33 2 -33 7 0 4 -4 8 -10 8 -5 0 -10
-2 -10 -5z"/>
<path d="M655 4930 c-8 -13 4 -32 16 -25 12 8 12 35 0 35 -6 0 -13 -4 -16 -10z"/>
<path d="M705 4840 c3 -5 8 -10 11 -10 2 0 4 5 4 10 0 6 -5 10 -11 10 -5 0 -7
-4 -4 -10z"/>
<path d="M414 4515 c-17 -13 -17 -14 -2 -15 9 0 20 5 23 11 11 17 0 20 -21 4z"/>
<path d="M2775 5225 c-5 -2 -22 -6 -37 -9 -15 -4 -44 -24 -65 -47 -67 -71 -94
-189 -74 -312 17 -100 53 -162 116 -198 57 -33 89 -36 143 -13 110 46 164 176
145 354 -13 129 -140 254 -228 225z m59 -216 c48 -57 32 -175 -26 -194 -72
-25 -107 153 -41 205 33 26 37 26 67 -11z"/>
<path d="M3574 5216 c-45 -20 -108 -100 -129 -164 -21 -64 -25 -206 -6 -225 6
-6 11 -20 11 -31 0 -32 57 -108 102 -138 71 -48 163 -34 226 33 64 68 96 216
73 331 -15 69 -82 167 -132 192 -39 19 -103 20 -145 2z m101 -203 c62 -62 35
-192 -41 -193 -31 0 -44 21 -51 79 -7 59 10 109 41 121 30 12 33 12 51 -7z"/>
<path d="M6310 3289 c-41 -4 -185 -12 -320 -18 -135 -6 -294 -15 -355 -21 -60
-5 -180 -12 -265 -15 -85 -3 -209 -10 -275 -15 -66 -5 -259 -17 -430 -25 -290
-15 -367 -24 -380 -45 -3 -5 0 -21 5 -36 l11 -27 149 6 c82 3 207 11 277 17
70 5 223 14 338 20 325 16 541 28 909 51 186 11 358 19 382 17 l44 -3 0 52 c0
29 -3 52 -7 52 -5 -1 -42 -5 -83 -10z"/>
<path d="M3143 3 c15 -2 37 -2 50 0 12 2 0 4 -28 4 -27 0 -38 -2 -22 -4z"/>
</g>
</svg>
