<?xml version="1.0" standalone="no"?>
<!DOCTYPE svg PUBLIC "-//W3C//DTD SVG 20010904//EN"
 "http://www.w3.org/TR/2001/REC-SVG-20010904/DTD/svg10.dtd">
<svg version="1.0" xmlns="http://www.w3.org/2000/svg"
 width="640.000000pt" height="640.000000pt" viewBox="0 0 640.000000 640.000000"
 preserveAspectRatio="xMidYMid meet">

<g transform="translate(0.000000,640.000000) scale(0.100000,-0.100000)"
fill="#000000" stroke="none">
<path d="M3195 5625 c-87 -7 -165 -18 -186 -27 -20 -9 -65 -19 -100 -23 -35
-4 -81 -16 -101 -26 -21 -11 -54 -19 -75 -19 -21 0 -58 -9 -82 -20 -24 -11
-57 -20 -75 -20 -17 0 -53 -11 -81 -25 -27 -13 -58 -25 -68 -25 -17 0 -107
-37 -152 -62 -11 -7 -33 -18 -50 -26 -16 -9 -41 -24 -54 -34 -13 -10 -31 -18
-40 -18 -19 0 -81 -60 -81 -78 0 -7 -14 -12 -31 -12 -20 0 -44 -10 -64 -27
-18 -16 -48 -41 -68 -57 -31 -24 -34 -31 -24 -47 7 -11 27 -26 45 -35 31 -14
35 -14 53 2 10 9 19 25 19 36 0 13 7 18 26 18 20 0 24 -3 16 -13 -6 -7 -13
-38 -16 -69 -4 -47 -2 -59 14 -73 21 -19 25 -14 32 30 2 11 16 26 32 35 42 21
42 33 1 74 -32 32 -36 42 -33 79 l3 42 39 -3 c22 -2 48 -7 57 -13 13 -7 27 0
59 26 23 19 53 35 66 35 15 0 24 6 24 15 0 10 11 15 35 15 44 0 46 -17 3 -25
-26 -5 -36 -14 -49 -45 -10 -21 -14 -41 -11 -44 14 -14 52 -4 63 16 11 20 13
20 24 5 7 -9 22 -17 33 -17 11 0 24 -4 27 -10 9 -14 -27 -59 -47 -60 -13 0
-18 -8 -18 -29 0 -16 -7 -37 -16 -46 -13 -13 -15 -28 -10 -70 6 -54 2 -62 -42
-71 -23 -4 -26 -13 -14 -38 7 -17 7 -27 -1 -35 -15 -15 -50 -14 -65 1 -9 9
-12 9 -13 0 -3 -26 -4 -31 -11 -38 -23 -22 -1 -86 39 -117 12 -10 23 -25 23
-33 0 -26 56 -17 80 14 18 22 30 27 64 27 24 0 50 -6 59 -14 22 -18 23 -94 1
-116 -17 -17 -88 -55 -102 -55 -13 0 -157 142 -165 163 -3 9 -12 17 -19 17 -7
0 -19 9 -25 19 -7 11 -29 22 -52 26 -31 5 -42 13 -51 36 -7 16 -15 29 -19 29
-12 0 -91 77 -91 89 0 7 -4 10 -8 7 -5 -3 -21 9 -37 26 -26 28 -30 29 -36 12
-4 -13 -1 -21 9 -25 13 -5 13 -6 -2 -12 -9 -4 -14 -11 -11 -17 3 -5 -1 -10 -9
-10 -19 0 -21 26 -3 33 6 3 3 6 -9 6 -15 1 -25 -9 -37 -39 -20 -51 -49 -54
-73 -8 -12 23 -13 33 -5 36 7 2 20 13 30 23 24 26 81 37 81 15 0 -9 5 -16 10
-16 6 0 10 6 10 13 0 6 3 22 6 35 5 16 2 22 -10 22 -10 0 -16 8 -16 23 0 29
-18 47 -46 47 -38 0 -331 -301 -409 -421 -36 -54 -70 -101 -75 -104 -6 -4 -17
-21 -25 -38 -8 -18 -28 -54 -45 -82 -16 -27 -32 -57 -36 -65 -3 -8 -25 -54
-50 -102 -24 -48 -44 -93 -44 -100 0 -7 -8 -29 -18 -48 -11 -19 -24 -57 -31
-85 -7 -27 -16 -54 -21 -60 -4 -5 -15 -37 -24 -71 -9 -34 -23 -77 -31 -97 -8
-20 -15 -49 -15 -65 0 -30 -54 -92 -80 -92 -14 0 -78 -40 -110 -68 -8 -7 -40
-28 -70 -48 -30 -19 -59 -40 -65 -47 -5 -8 -44 -42 -85 -76 -80 -67 -109 -105
-88 -117 7 -4 18 2 26 14 8 12 20 22 26 23 6 0 31 16 56 35 25 19 56 40 70 46
14 7 32 21 41 30 9 10 19 18 22 18 3 0 34 18 68 40 155 97 160 95 157 -57 -1
-58 -7 -107 -13 -111 -5 -4 -56 -7 -111 -7 -79 0 -106 -4 -120 -16 -11 -9 -42
-22 -71 -29 -29 -6 -57 -18 -63 -25 -6 -8 -26 -17 -43 -21 -38 -8 -37 -7 -152
-122 -120 -120 -122 -123 -134 -179 -5 -26 -16 -66 -25 -88 -19 -51 -19 -159
0 -210 9 -22 19 -58 24 -81 12 -58 51 -125 99 -174 22 -23 41 -45 42 -48 1
-20 120 -103 165 -117 74 -22 78 -29 75 -154 -1 -60 4 -147 13 -197 8 -49 17
-131 21 -183 4 -52 11 -104 15 -116 8 -20 89 -97 236 -222 54 -46 84 -55 84
-24 0 11 5 23 10 26 15 9 25 -24 11 -38 -6 -6 -11 -18 -11 -26 0 -12 3 -12 12
-3 20 20 37 14 76 -30 58 -66 165 -168 189 -181 12 -7 59 -40 105 -75 80 -60
107 -81 162 -129 14 -12 34 -24 45 -28 31 -9 37 -59 12 -99 -14 -22 -21 -50
-21 -85 0 -28 -9 -79 -20 -111 -20 -60 -40 -262 -40 -417 l0 -73 65 0 65 0 0
51 c0 31 4 48 10 44 6 -4 10 8 10 30 0 22 -4 34 -10 30 -6 -4 -10 7 -10 25 0
17 4 29 9 26 13 -8 21 72 20 191 -1 70 2 108 11 118 7 9 10 27 7 44 -8 36 1
46 24 25 16 -15 19 -15 24 -2 3 8 0 33 -8 55 -9 26 -11 47 -5 57 11 20 28 12
28 -15 0 -20 12 -23 44 -10 18 7 17 10 -11 35 -17 15 -33 40 -36 56 -5 21 -15
31 -42 40 -41 13 -47 41 -12 58 12 6 16 11 9 11 -7 1 -10 6 -6 12 3 6 -7 24
-22 41 -20 21 -25 32 -16 35 6 3 10 9 6 14 -10 16 -24 -1 -24 -30 0 -21 -6
-30 -22 -34 -29 -8 -36 -2 -44 38 -7 41 -26 59 -53 50 -14 -4 -23 0 -30 14 -6
11 -20 23 -32 26 -21 7 -23 39 -1 41 6 1 19 2 27 3 19 1 19 15 0 34 -11 12
-12 17 -2 20 7 3 5 6 -5 6 -10 1 -18 4 -18 9 0 9 -94 12 -100 2 -9 -13 -48
-21 -54 -11 -10 15 5 40 20 34 22 -8 17 24 -7 48 -11 11 -18 27 -15 35 7 17
22 18 32 2 5 -7 3 -8 -6 -3 -8 5 -11 4 -6 -3 17 -29 143 -14 140 17 -1 6 -2
21 -3 34 -2 21 -2 21 -16 4 -13 -18 -14 -18 -24 2 -6 11 -10 25 -9 32 2 6 -3
14 -10 16 -7 3 -13 -1 -11 -8 3 -29 -1 -69 -9 -69 -4 0 -6 18 -4 40 4 41 -6
50 -30 27 -7 -7 -21 -12 -30 -12 -10 0 -17 -4 -15 -10 1 -5 5 -9 8 -8 4 1 9
-7 12 -17 3 -13 0 -20 -9 -20 -8 0 -14 -4 -14 -10 0 -5 -7 -7 -15 -4 -10 4
-18 -3 -25 -20 -12 -33 -42 -34 -67 -2 -11 13 -30 26 -44 28 -16 2 -24 9 -24
23 0 11 -9 24 -20 29 -23 10 -17 12 47 21 29 4 49 12 52 22 5 13 4 14 -9 3
-13 -11 -15 -7 -15 29 0 33 4 41 18 41 20 0 52 -48 45 -67 -3 -7 -11 -13 -19
-13 -9 0 -12 -4 -9 -10 12 -20 34 -9 50 24 9 18 25 43 35 54 11 12 20 26 20
31 0 6 6 14 14 18 8 4 16 17 18 28 3 17 10 19 43 17 48 -5 67 -19 60 -43 -4
-12 2 -23 19 -34 36 -24 67 -16 85 22 9 18 18 33 21 33 3 0 16 -10 30 -21 24
-19 24 -20 6 -32 -10 -7 -31 -22 -46 -34 -15 -13 -35 -23 -45 -23 -9 0 -23 -6
-30 -14 -24 -23 7 -40 58 -33 56 8 107 -20 107 -58 0 -14 -5 -25 -10 -25 -6 0
-15 -10 -20 -22 -7 -18 -9 -19 -9 -5 -1 11 -7 17 -18 15 -12 -2 -23 8 -33 29
-8 18 -18 33 -22 33 -4 0 -17 -14 -30 -30 -12 -16 -30 -30 -40 -30 -20 0 -25
-26 -6 -32 24 -8 68 5 68 20 0 37 23 -10 29 -59 1 -4 18 -9 40 -13 31 -5 41
-12 52 -37 12 -32 88 -117 90 -102 0 4 4 -2 9 -14 5 -12 8 -30 6 -40 -17 -87
-17 -121 -2 -126 11 -5 16 0 16 14 0 11 7 22 15 25 19 8 19 38 0 54 -10 8 -15
31 -15 65 0 39 -4 54 -16 59 -12 5 -15 18 -11 70 2 36 1 65 -2 64 -36 -4 -41
3 -41 56 0 35 -5 60 -15 70 -8 8 -15 19 -15 25 0 6 -4 11 -10 11 -17 0 12 49
33 56 28 9 37 -11 37 -89 0 -54 4 -71 20 -87 14 -14 20 -33 20 -68 0 -36 5
-54 20 -67 11 -10 20 -24 20 -31 0 -8 11 -16 25 -20 28 -7 33 -29 10 -38 -22
-8 -18 -21 9 -34 23 -10 24 -14 15 -47 -10 -36 -5 -60 11 -50 5 3 11 1 15 -5
9 -15 35 -12 29 3 -2 7 2 21 10 32 12 16 16 17 30 6 9 -7 16 -19 16 -27 0 -20
56 -27 185 -23 111 4 115 3 115 -17 0 -11 -9 -30 -20 -42 -11 -12 -20 -31 -20
-42 0 -27 -21 -112 -30 -125 -20 -27 -29 -125 -27 -283 1 -96 -1 -176 -5 -178
-5 -3 -8 2 -8 10 0 9 -6 13 -14 10 -18 -7 -27 44 -20 111 7 65 -3 115 -22 115
-8 0 -17 -7 -21 -16 -5 -13 -7 -13 -14 -2 -6 9 -9 2 -9 -19 0 -19 -8 -41 -19
-52 -18 -18 -18 -19 8 -19 14 0 29 5 32 10 4 7 9 6 13 -1 4 -6 3 -11 -1 -11
-11 0 -4 -68 8 -76 5 -3 9 -26 9 -52 0 -30 -3 -42 -9 -34 -14 23 -24 -17 -22
-88 3 -73 7 -82 25 -57 16 21 30 22 46 2 7 -8 27 -15 46 -15 26 0 33 4 36 22
4 30 32 30 36 1 3 -21 9 -23 66 -23 l63 0 -17 48 c-9 26 -22 61 -29 77 -7 17
-19 66 -26 110 -8 44 -20 108 -26 143 -10 50 -10 80 -1 140 7 42 19 117 27
165 7 49 21 99 29 112 9 14 16 31 16 38 0 8 17 35 37 61 44 54 60 56 138 22
30 -14 92 -30 138 -37 45 -7 91 -18 103 -26 12 -7 58 -16 103 -20 44 -3 81 -7
81 -9 0 -2 -9 -18 -20 -36 -27 -44 -27 -114 -1 -128 11 -5 28 -37 41 -74 25
-76 85 -149 135 -166 19 -6 35 -15 35 -19 0 -4 17 -16 38 -26 l37 -19 -60 -7
c-33 -4 -103 -8 -155 -8 -161 0 -299 -12 -311 -27 -6 -7 -13 -40 -16 -73 -5
-49 -2 -65 16 -94 11 -19 21 -41 21 -49 0 -8 12 -33 27 -56 27 -41 28 -42 86
-42 69 0 69 0 3 93 -43 61 -65 129 -49 154 6 8 152 15 508 23 415 10 504 15
524 27 23 15 23 16 5 26 -10 5 -29 19 -41 29 -18 17 -25 18 -43 8 -18 -9 -28
-9 -46 0 -13 8 -34 10 -51 5 -56 -14 -113 -17 -113 -6 0 6 9 11 20 11 11 0 27
11 35 24 9 13 29 29 45 36 17 7 39 27 49 44 11 17 31 41 45 54 15 12 26 33 26
46 0 43 19 81 67 131 6 7 15 29 19 50 5 30 3 41 -10 51 -14 10 1 13 89 19
l106 7 6 29 c7 36 17 43 33 24 7 -8 20 -15 29 -15 9 0 23 -6 29 -12 10 -10 17
-10 32 0 33 20 58 14 94 -26 44 -46 96 -145 96 -181 0 -14 6 -35 13 -46 50
-84 52 -86 120 -117 15 -7 27 -18 27 -25 0 -7 8 -21 18 -31 9 -10 24 -29 32
-42 8 -12 25 -34 37 -47 12 -14 25 -38 28 -54 4 -16 15 -33 24 -39 10 -5 21
-23 24 -40 5 -24 12 -30 32 -30 14 0 24 3 24 8 -1 4 -1 24 0 44 2 55 22 62
118 37 67 -17 114 -20 333 -22 l255 -2 47 30 c25 17 53 44 62 60 8 17 21 41
29 55 8 14 25 50 39 80 14 30 37 80 52 111 14 31 26 60 26 65 0 5 6 20 13 34
7 14 28 72 46 130 45 144 48 148 95 161 43 11 56 17 118 50 41 21 228 201 228
219 0 6 12 37 27 68 27 56 27 60 26 242 l-1 185 -35 86 c-19 47 -46 104 -60
127 -33 51 -141 159 -181 179 -17 9 -42 24 -55 34 -13 11 -33 19 -45 19 -12 0
-32 8 -45 17 -26 17 -167 46 -183 37 -16 -10 -68 7 -68 22 0 8 16 45 35 83 19
37 35 73 35 81 0 7 9 31 19 54 25 54 67 198 76 261 4 27 14 63 22 78 15 30 24
87 44 293 10 95 10 145 0 240 -22 213 -23 217 -87 279 -31 30 -60 55 -63 55
-10 0 -71 67 -71 77 0 6 -7 13 -15 17 -8 3 -20 17 -25 31 -5 14 -16 25 -25 25
-8 0 -15 5 -15 11 0 19 -113 149 -129 149 -5 0 -12 14 -16 30 -8 36 -31 39
-47 5 -6 -14 -14 -25 -18 -25 -4 0 -10 -16 -13 -36 -5 -31 -2 -40 28 -70 36
-36 46 -74 21 -74 -23 0 -29 -19 -14 -38 8 -9 15 -28 16 -42 1 -17 -2 -20 -7
-12 -10 17 -21 17 -32 0 -7 -10 -9 -10 -9 0 0 7 -4 10 -10 7 -14 -9 -12 -50 4
-90 17 -40 33 -45 46 -12 7 18 9 15 9 -20 1 -23 6 -45 11 -48 6 -3 10 -23 10
-44 0 -40 -21 -68 -40 -56 -20 13 -40 -17 -40 -59 0 -39 15 -71 48 -106 10
-10 11 -15 3 -18 -6 -2 -11 -16 -11 -32 0 -48 -16 -77 -41 -76 -31 1 -48 31
-31 54 7 9 15 25 18 35 4 9 10 17 15 17 5 0 9 11 9 25 0 18 -5 25 -20 25 -18
0 -20 7 -20 68 0 64 -15 122 -32 122 -5 0 -8 22 -8 48 0 48 -24 156 -39 176
-4 6 -13 30 -20 54 -6 23 -16 40 -21 37 -6 -4 -10 4 -10 17 0 20 5 23 33 23
30 0 33 3 42 43 6 24 13 40 17 37 3 -3 8 6 12 20 4 14 10 25 15 25 10 0 71 79
71 92 0 15 -79 9 -88 -8 -8 -14 -10 -14 -21 0 -16 19 -42 21 -59 4 -9 -9 -12
-8 -12 5 0 9 -4 17 -10 17 -5 0 -10 7 -10 16 0 9 5 12 12 8 7 -5 9 -1 6 13 -8
30 33 24 55 -9 33 -48 53 -31 43 37 -5 32 -12 44 -27 48 -11 3 -23 15 -26 26
-7 26 -11 26 -36 4 -19 -17 -19 -17 -12 27 6 43 5 46 -24 63 -17 10 -31 25
-31 33 0 8 -17 33 -38 57 -21 23 -42 50 -45 60 -4 9 -13 17 -20 17 -8 0 -20 6
-26 14 -10 11 -32 13 -107 9 -90 -6 -94 -5 -94 15 0 29 54 56 71 36 12 -14 51
-19 62 -8 9 10 -17 55 -48 84 -17 16 -29 21 -32 13 -2 -6 -12 -21 -22 -32 -16
-19 -20 -19 -25 -5 -12 31 -7 74 10 74 10 0 14 7 12 22 -4 30 -26 34 -30 6 -2
-13 -10 -23 -18 -23 -21 0 -22 76 -1 92 14 10 14 14 -2 42 -10 17 -13 31 -8
31 13 0 10 22 -4 32 -17 13 -25 9 -25 -11 0 -22 -4 -26 -42 -35 -23 -5 -27 -3
-25 16 1 19 37 69 37 52 0 -4 7 -1 15 6 21 18 9 30 -30 30 -34 0 -49 -17 -39
-45 10 -24 -16 -17 -42 11 -29 30 -30 41 -6 41 38 0 42 4 42 37 0 34 20 61 28
38 2 -7 10 -12 18 -12 8 0 14 -4 14 -9 0 -5 9 -11 20 -14 11 -3 20 -12 20 -21
0 -10 9 -16 24 -16 13 0 34 -11 47 -25 26 -27 59 -33 59 -11 0 16 21 26 58 26
18 0 31 7 37 21 13 28 29 29 33 2 2 -14 -3 -23 -15 -27 -29 -9 -54 -59 -47
-95 5 -23 2 -32 -10 -37 -9 -3 -13 -11 -9 -18 4 -6 7 -20 8 -30 0 -14 10 -22
32 -28 24 -6 38 -19 52 -46 10 -20 31 -48 45 -61 26 -24 26 -24 26 -3 0 32
-21 72 -39 73 -10 0 -8 3 6 9 15 6 21 15 17 25 -3 8 -2 15 4 15 5 0 13 12 16
26 5 19 1 33 -13 48 -12 12 -21 28 -21 34 0 7 -7 12 -15 12 -16 0 -35 30 -35
54 0 22 32 20 52 -3 8 -10 21 -20 27 -22 6 -2 14 -17 17 -33 5 -31 19 -48 47
-59 16 -6 18 -14 12 -55 -5 -37 -3 -51 9 -61 13 -11 16 -7 22 23 7 40 18 46
34 17 13 -25 13 -61 0 -61 -5 0 -10 -4 -10 -10 0 -5 13 -7 30 -3 25 5 30 2 30
-14 0 -11 -9 -28 -20 -38 -28 -25 -34 -52 -16 -71 11 -10 14 -24 10 -42 -9
-37 -13 -42 -30 -42 -20 0 -17 -27 4 -32 10 -3 24 -23 32 -47 9 -28 19 -41 31
-41 20 0 32 14 22 24 -14 13 -13 46 1 46 17 0 27 -25 19 -47 -5 -13 -3 -15 12
-9 18 7 18 6 1 -13 -17 -19 -17 -23 -3 -53 9 -18 32 -50 52 -71 19 -21 35 -41
35 -45 0 -3 9 -15 20 -27 46 -47 90 -103 90 -113 0 -6 9 -14 20 -17 11 -3 20
-11 20 -16 0 -5 11 -19 25 -31 14 -12 25 -26 25 -30 0 -5 16 -26 34 -46 19
-20 38 -47 41 -61 4 -14 16 -37 28 -51 12 -15 27 -35 33 -45 7 -13 16 -16 28
-12 16 6 18 15 12 68 -4 34 -16 83 -26 109 -10 26 -22 75 -26 109 -3 33 -13
66 -20 72 -7 6 -16 27 -19 48 -8 43 -42 121 -95 217 -26 46 -151 236 -167 254
-16 19 -85 107 -138 178 -21 28 -43 52 -47 52 -5 0 -11 7 -15 16 -6 16 -224
234 -281 282 -15 12 -47 40 -72 62 -25 23 -57 48 -72 56 -16 8 -28 18 -28 23
0 9 -49 42 -110 73 -19 10 -42 22 -50 27 -8 5 -30 15 -47 21 -18 7 -33 16 -33
21 0 5 -6 9 -14 9 -7 0 -34 11 -60 25 -26 14 -55 25 -65 25 -10 0 -39 11 -65
25 -26 14 -58 25 -71 25 -13 0 -46 8 -72 19 -26 10 -73 22 -103 26 -30 4 -73
14 -95 23 -86 32 -500 47 -750 27z m412 -71 c71 -6 80 -9 67 -21 -8 -8 -14
-20 -14 -27 0 -7 -28 -16 -67 -23 -96 -16 -115 -21 -127 -33 -7 -7 -3 -10 11
-10 30 0 83 -20 83 -32 0 -6 -14 -8 -34 -4 -29 6 -36 3 -41 -13 -5 -17 -13
-19 -63 -15 -31 2 -68 6 -82 9 -14 4 -32 7 -40 9 -8 2 -17 13 -20 25 -3 12 -9
23 -15 24 -5 1 -9 5 -8 8 3 10 -74 42 -84 36 -5 -3 -29 0 -53 7 l-44 13 99 5
c55 3 107 2 116 -3 18 -9 79 15 79 31 0 16 117 23 237 14z m308 -44 l60 -1
-50 -20 c-42 -17 -57 -19 -105 -11 -57 10 -75 7 -50 -8 20 -13 -12 -24 -70
-25 -38 0 -45 3 -45 20 0 11 5 20 10 21 6 0 28 5 49 12 22 6 43 9 47 7 4 -3
18 -1 31 5 12 5 32 7 43 5 11 -3 47 -5 80 -5z m-880 -40 c3 -5 24 -10 46 -10
24 0 38 -4 34 -10 -3 -5 1 -20 10 -34 11 -16 13 -26 6 -31 -7 -3 -11 3 -11 14
0 29 -9 26 -48 -16 -20 -21 -32 -31 -27 -23 6 12 5 13 -6 2 -11 -10 -11 -16 0
-33 7 -12 14 -30 16 -40 5 -25 -21 -25 -28 0 -3 14 -17 22 -43 26 -22 3 -52
12 -67 20 -16 8 -41 15 -55 15 -17 0 -32 8 -40 20 -7 12 -17 18 -22 15 -5 -3
-13 2 -19 12 -7 14 -2 22 27 42 49 34 212 56 227 31z m1130 -20 c0 -10 -13
-16 -42 -18 -26 -2 -43 1 -43 7 0 6 -8 11 -17 11 -15 0 -16 2 -3 10 24 16 105
8 105 -10z m-240 -13 c11 -3 39 -8 63 -12 31 -5 42 -11 38 -21 -4 -11 5 -14
39 -14 25 0 54 -5 65 -12 16 -10 22 -8 40 15 14 18 31 27 50 27 33 0 91 -45
84 -64 -4 -9 6 -12 33 -11 22 1 46 -5 56 -13 20 -18 24 -82 5 -82 -34 1 -59
15 -64 36 -3 13 -12 24 -20 24 -8 0 -14 5 -14 10 0 6 -11 8 -25 4 -14 -3 -31
-1 -39 5 -9 8 -16 8 -20 2 -4 -5 3 -16 15 -25 12 -8 18 -19 15 -24 -3 -6 9
-15 26 -21 18 -6 44 -23 59 -37 25 -24 28 -24 68 -11 36 13 42 13 50 -1 5 -8
25 -16 46 -17 20 -1 50 -13 67 -25 30 -22 30 -24 13 -36 -10 -8 -14 -14 -7
-14 9 0 9 -6 0 -25 -13 -29 -44 -26 -67 6 -7 10 -20 19 -29 19 -8 0 -23 7 -33
16 -17 15 -19 14 -32 -18 -13 -32 -17 -34 -51 -30 -35 4 -46 15 -26 27 17 10
11 25 -13 36 -17 8 -30 6 -52 -5 -28 -15 -31 -14 -45 4 -10 13 -33 21 -72 26
-32 4 -58 8 -58 10 0 22 17 34 49 33 35 -1 120 -27 92 -28 -8 -1 -12 -3 -9 -6
3 -3 12 -3 20 0 26 10 -2 53 -44 70 -21 8 -38 22 -38 30 0 25 -24 17 -70 -22
-43 -37 -46 -38 -121 -38 -43 1 -88 6 -101 13 -19 9 -114 21 -180 21 -43 1
-65 -5 -61 -15 4 -11 -107 -24 -203 -24 -33 0 -43 -4 -47 -19 -3 -14 -17 -21
-50 -26 -25 -4 -48 -13 -51 -20 -3 -8 -21 -17 -41 -21 -20 -3 -39 -14 -43 -23
-15 -41 -68 -43 -83 -3 -14 35 -40 134 -37 137 2 1 13 8 26 14 12 6 22 21 22
31 0 25 28 26 46 3 12 -17 13 -17 27 1 17 23 53 14 62 -15 5 -14 15 -19 41
-19 21 0 33 -4 29 -10 -3 -5 1 -10 9 -10 8 0 18 5 21 10 3 6 15 10 26 10 10 0
19 5 19 11 0 7 10 9 25 7 22 -5 23 -3 13 10 -11 13 -10 14 10 3 14 -8 40 -10
70 -6 79 11 82 13 83 53 1 41 4 36 14 -22 6 -37 7 -38 21 -18 11 17 12 30 4
68 -6 26 -8 49 -5 52 3 3 16 0 30 -6 14 -7 46 -12 70 -12 34 0 47 -5 55 -20 8
-16 21 -20 60 -20 59 0 75 16 25 26 -24 4 -35 12 -35 23 0 25 22 43 45 38 11
-3 29 -7 40 -10z m-1142 -71 c13 4 16 0 14 -18 -4 -22 -8 -23 -88 -24 -81 -1
-84 -2 -94 -28 -5 -15 -19 -29 -32 -32 -12 -3 -27 -12 -33 -19 -6 -8 -25 -17
-41 -20 -16 -4 -37 -18 -45 -31 -19 -28 -46 -32 -42 -6 2 11 -4 18 -19 20 -33
5 -28 34 8 54 25 15 28 21 20 36 -13 25 -5 32 36 32 22 0 37 7 45 20 14 22 46
27 53 8 3 -8 26 -14 54 -15 40 -2 54 2 72 21 20 21 25 22 48 10 14 -8 34 -11
44 -8z m559 -55 c-18 -31 -32 -32 -32 -1 0 11 9 20 23 23 12 2 23 5 24 6 1 0
-5 -12 -15 -28z m1158 8 c0 -22 -25 -59 -41 -59 -27 0 -42 64 -17 72 18 6 58
-3 58 -13z m110 -59 c0 -16 7 -20 35 -20 24 0 35 -5 35 -15 0 -8 6 -15 13 -15
6 0 4 -5 -6 -11 -27 -16 -62 -3 -75 26 -8 16 -23 28 -42 31 -41 9 -38 24 5 24
28 0 35 -4 35 -20z m-1646 -53 c42 -42 43 -46 50 -124 6 -81 2 -113 -16 -113
-5 0 -26 11 -46 25 -45 31 -47 31 -84 0 -41 -35 -69 -92 -69 -140 0 -38 8 -50
50 -74 24 -14 1 -31 -42 -31 -23 0 -58 8 -77 18 -46 25 -172 36 -216 20 -25
-9 -42 -9 -73 1 -45 13 -60 34 -65 85 -2 26 2 36 15 39 10 3 21 17 24 31 3 14
7 37 10 51 9 43 194 215 232 215 10 0 36 9 58 19 29 14 64 20 123 20 l83 1 43
-43z m1746 -37 c0 -4 14 -13 32 -19 17 -6 37 -20 45 -31 8 -11 23 -20 35 -20
11 0 22 -8 25 -20 3 -11 14 -20 25 -20 30 0 18 -34 -14 -38 -20 -2 -30 4 -44
27 -23 40 -44 40 -44 1 0 -19 5 -30 14 -30 22 0 26 -27 7 -44 -23 -21 -31 -20
-31 4 0 10 -9 24 -20 30 -28 15 -25 48 5 62 27 12 29 16 16 37 -11 17 -41 7
-41 -14 0 -8 -7 -16 -15 -16 -78 -7 -97 -1 -70 21 8 7 12 16 9 21 -3 5 2 6 10
3 10 -4 16 -1 17 7 1 8 2 19 4 24 1 6 3 15 3 22 2 13 32 6 32 -7z m-779 -25
c24 -8 71 -19 104 -24 62 -10 318 -132 361 -171 11 -11 23 -20 27 -20 4 0 31
-26 62 -57 30 -32 62 -66 71 -75 23 -24 63 -114 70 -158 7 -45 -9 -100 -36
-125 -32 -29 -10 -55 48 -56 26 0 70 -4 97 -10 28 -5 69 -12 91 -15 79 -12
184 -113 184 -178 -1 -37 -14 -55 -59 -78 -41 -22 -69 -23 -110 -2 -18 9 -50
18 -72 21 -23 4 -44 13 -49 23 -5 10 -21 21 -34 24 -14 3 -46 21 -72 39 -55
38 -144 87 -159 87 -6 0 -28 -9 -50 -20 -22 -11 -52 -20 -68 -20 -15 0 -44 -8
-65 -19 -20 -10 -62 -21 -92 -25 -30 -4 -60 -11 -66 -17 -46 -38 -533 -3 -604
44 -14 9 -44 19 -68 23 -24 4 -49 12 -55 19 -7 6 -27 17 -45 23 -18 6 -45 20
-59 32 -14 11 -33 20 -42 20 -20 0 -76 57 -85 86 -4 12 -15 32 -26 44 -11 13
-20 33 -20 45 0 13 -7 39 -15 58 -33 79 -6 220 57 300 30 38 127 107 151 107
6 0 32 10 57 22 25 11 65 24 90 29 25 4 68 14 95 22 70 21 325 22 386 2z m560
-93 c5 -13 9 -30 9 -38 0 -21 -33 -17 -48 6 -7 11 -21 20 -32 20 -19 0 -27 20
-13 34 4 3 22 5 41 4 25 -2 36 -8 43 -26z m-1391 3 c0 -8 -4 -15 -10 -15 -5 0
-7 7 -4 15 4 8 8 15 10 15 2 0 4 -7 4 -15z m1565 -225 c-5 -8 -11 -8 -17 -2
-6 6 -7 16 -3 22 5 8 11 8 17 2 6 -6 7 -16 3 -22z m-2765 0 c0 -5 -4 -10 -10
-10 -5 0 -10 5 -10 10 0 6 5 10 10 10 6 0 10 -4 10 -10z m-190 -70 c0 -20 -28
-54 -52 -63 -23 -8 -23 -24 0 -32 11 -3 24 -17 30 -30 14 -30 28 -32 42 -5 12
23 6 40 -16 40 -19 0 -18 46 2 54 9 3 25 6 37 6 19 0 22 -6 25 -43 1 -23 5
-49 7 -57 6 -21 -14 -50 -22 -32 -4 10 -9 7 -17 -10 -6 -12 -22 -24 -34 -26
-13 -2 -26 -11 -29 -20 -4 -9 -24 -42 -45 -73 -36 -54 -46 -87 -31 -103 4 -3
12 8 17 26 6 18 21 37 34 43 12 5 25 18 28 27 3 10 11 18 19 18 8 0 17 9 20
20 3 11 13 20 20 20 8 0 17 11 21 25 7 27 57 61 84 57 17 -3 60 33 60 48 0 6
7 10 15 10 8 0 15 9 15 20 0 16 -7 20 -35 20 -23 0 -35 5 -35 14 0 16 -21 26
-56 26 -22 0 -25 4 -22 28 3 23 8 27 41 30 36 3 37 2 37 -28 0 -30 2 -32 27
-25 15 3 30 7 33 8 9 2 110 -58 110 -66 0 -4 -17 -15 -37 -24 -21 -8 -42 -21
-46 -29 -4 -8 -19 -14 -32 -14 -14 0 -25 -6 -25 -13 0 -8 -11 -19 -25 -25 -14
-6 -25 -18 -25 -27 0 -8 -6 -15 -13 -15 -16 0 -127 -108 -127 -124 0 -6 -9
-17 -20 -24 -11 -7 -20 -18 -20 -26 0 -7 -9 -16 -19 -19 -11 -3 -22 -17 -26
-36 -4 -17 -11 -31 -16 -31 -6 0 -17 -16 -25 -35 -8 -19 -18 -35 -23 -35 -10
0 -37 -46 -67 -112 -9 -21 -23 -38 -30 -38 -7 0 -16 -17 -20 -37 -4 -21 -18
-57 -31 -80 -12 -23 -23 -53 -23 -66 0 -28 -16 -37 -64 -37 -20 0 -40 -8 -51
-20 -9 -10 -37 -22 -62 -26 -25 -3 -47 -12 -50 -19 -7 -20 -59 -38 -77 -28
-14 7 -13 12 8 34 17 19 22 33 18 57 -2 20 0 32 7 32 6 0 11 -11 11 -25 0 -35
20 -31 66 11 28 25 45 33 59 29 45 -15 95 1 91 28 -4 29 -18 36 -59 31 -38 -5
-43 -3 -54 21 -11 24 -10 28 7 32 11 3 20 12 20 20 0 8 4 12 9 9 12 -8 28 14
35 51 10 43 -8 50 -35 14 -20 -27 -58 -54 -45 -32 3 5 -2 12 -12 16 -16 6 -16
7 0 16 10 6 19 28 23 57 11 83 15 98 26 81 6 -10 9 -7 9 14 0 15 5 27 10 27 6
0 10 9 10 19 0 11 5 23 10 26 6 3 10 2 10 -2 0 -5 9 -9 19 -9 16 0 19 5 14 31
-3 16 -2 27 2 23 4 -4 12 -2 19 3 6 5 20 16 31 23 19 14 19 15 2 33 -18 21
-23 53 -8 53 5 0 17 -7 26 -16 13 -14 18 -14 33 -2 25 20 30 28 25 48 -3 11
-11 16 -22 13 -29 -7 -36 28 -11 49 11 9 26 31 32 49 l11 32 15 -29 c14 -26
68 -84 78 -84 2 0 4 7 4 15 0 8 -6 15 -14 15 -10 0 -13 12 -12 43 3 52 11 68
31 60 19 -7 19 11 0 27 -18 15 -19 36 -2 47 6 4 17 17 23 28 6 11 21 21 33 23
11 2 21 8 21 13 0 5 11 2 25 -7 14 -9 25 -24 25 -34z m1300 -55 c0 -35 -18
-40 -30 -9 -8 20 -8 29 2 35 17 11 28 1 28 -26z m-1010 -158 c0 -7 -8 -24 -17
-37 -15 -21 -18 -47 -18 -150 0 -114 2 -128 23 -157 12 -17 22 -37 22 -45 0
-23 111 -132 190 -188 19 -13 38 -28 41 -33 4 -5 22 -12 40 -16 29 -6 34 -12
37 -37 2 -20 -4 -36 -18 -49 -13 -12 -20 -31 -20 -54 0 -20 -13 -58 -28 -86
-25 -45 -32 -51 -77 -61 -27 -6 -63 -17 -78 -23 -16 -6 -39 -11 -51 -11 -13 0
-31 -9 -42 -21 -10 -11 -34 -27 -52 -35 -38 -15 -172 -148 -172 -170 0 -8 -12
-37 -26 -64 -24 -46 -26 -60 -27 -183 0 -132 0 -132 37 -209 44 -93 112 -164
204 -213 44 -23 56 -25 195 -25 114 0 149 -3 153 -13 3 -8 -4 -37 -16 -66 -11
-28 -20 -66 -20 -84 0 -18 -8 -54 -17 -82 -14 -41 -17 -100 -19 -338 -1 -201
-5 -292 -13 -300 -7 -7 -26 -12 -44 -13 -106 -5 -208 -50 -300 -131 -20 -18
-42 -33 -48 -33 -13 0 -56 45 -89 94 -14 21 -30 43 -35 49 -27 30 -75 107 -75
119 0 7 -8 18 -19 25 -10 6 -21 25 -24 42 -4 17 -16 39 -27 48 -11 10 -20 24
-20 33 0 8 -8 29 -18 45 -10 17 -24 53 -32 80 -7 28 -19 59 -26 70 -7 11 -15
40 -19 64 -4 24 -14 60 -22 80 -8 19 -19 64 -24 98 -5 34 -15 81 -23 104 -19
54 -7 80 59 129 41 31 95 90 95 104 0 18 -65 2 -105 -25 -42 -29 -48 -30 -62
-16 -20 19 -32 116 -39 307 l-6 145 25 23 c14 13 58 41 99 61 85 45 94 65 27
69 -35 2 -49 -2 -64 -18 -19 -21 -50 -26 -73 -12 -10 7 -10 15 2 43 7 19 17
68 21 108 3 41 15 92 26 113 10 20 19 48 19 60 0 13 14 44 30 70 25 40 35 47
72 53 66 11 78 21 43 35 -17 7 -37 16 -45 20 -19 10 -15 54 11 100 10 19 23
46 29 60 6 14 24 48 40 75 17 28 36 61 43 75 14 29 34 58 100 142 26 33 47 64
47 68 0 3 43 50 95 103 88 90 125 115 125 84z m3210 -95 c0 -13 -12 -22 -22
-16 -10 6 -1 24 13 24 5 0 9 -4 9 -8z m-1906 -131 c17 -10 47 -24 67 -30 20
-6 53 -20 74 -31 22 -11 50 -20 63 -20 12 0 40 -9 62 -20 34 -17 59 -20 178
-20 111 0 142 -3 152 -15 10 -12 8 -16 -15 -25 -14 -5 -32 -10 -39 -10 -7 0
-25 -9 -39 -20 -14 -11 -36 -20 -50 -20 -13 0 -32 -9 -42 -19 -16 -19 -134
-81 -153 -81 -5 0 -17 -9 -27 -20 -10 -11 -23 -20 -30 -20 -7 0 -20 -9 -30
-20 -10 -11 -24 -20 -31 -20 -7 0 -29 -13 -47 -30 -19 -16 -38 -30 -41 -30 -4
0 -21 -10 -39 -22 -130 -92 -377 -336 -377 -374 0 -2 9 -4 20 -4 12 0 42 19
68 43 26 23 74 65 107 92 33 27 65 55 70 61 18 22 230 175 275 200 12 6 31 20
43 32 12 11 49 34 82 51 33 18 63 39 68 47 4 7 18 14 31 14 12 0 37 11 56 25
19 14 42 25 52 25 10 0 39 11 65 24 51 26 83 37 178 66 33 10 78 25 100 34 22
8 59 15 82 16 23 0 62 6 85 14 24 8 81 17 128 21 77 6 87 5 107 -14 12 -12 25
-21 29 -21 3 0 18 -8 32 -18 15 -10 43 -24 62 -31 19 -7 46 -19 60 -26 14 -7
44 -16 68 -20 23 -4 42 -11 42 -16 0 -4 14 -22 30 -39 17 -17 30 -37 30 -44 0
-8 7 -19 15 -26 8 -7 21 -24 28 -39 28 -53 59 -106 73 -122 8 -8 14 -28 14
-43 0 -15 11 -52 25 -82 14 -30 25 -69 25 -87 0 -19 7 -57 15 -85 11 -36 15
-85 13 -164 l-3 -113 -27 -3 c-17 -2 -34 4 -47 17 -12 12 -29 21 -39 21 -11 0
-29 9 -42 20 -13 11 -35 23 -49 26 -14 3 -42 14 -62 25 -20 10 -44 19 -53 19
-9 0 -35 9 -59 20 -23 11 -67 24 -97 29 -30 5 -75 17 -100 27 -64 24 -209 31
-235 10 -19 -15 -19 -17 -2 -30 9 -7 40 -16 68 -19 29 -4 59 -13 68 -20 9 -8
40 -17 68 -21 75 -10 251 -54 276 -70 12 -8 36 -17 54 -21 17 -3 37 -13 44
-21 6 -8 31 -19 55 -25 24 -6 44 -15 44 -19 0 -4 18 -15 41 -24 22 -9 50 -28
63 -43 19 -22 21 -32 15 -72 -4 -25 -8 -73 -9 -106 0 -33 -7 -87 -16 -120 -8
-33 -22 -96 -30 -140 -8 -44 -19 -89 -24 -100 -5 -11 -16 -37 -24 -57 -8 -21
-19 -38 -23 -38 -9 1 -33 18 -73 51 -35 29 -160 119 -165 119 -3 0 -31 20 -64
45 -32 25 -63 45 -69 45 -5 0 -25 11 -45 24 -19 13 -46 27 -58 31 -24 7 -85
33 -149 65 -19 9 -57 20 -85 24 -27 4 -58 9 -67 12 -14 4 -18 -1 -18 -21 0
-19 7 -28 28 -36 15 -6 48 -22 73 -35 26 -13 58 -24 71 -24 14 0 33 -9 42 -19
10 -11 31 -23 47 -26 16 -4 32 -11 35 -17 3 -5 25 -18 49 -28 24 -10 46 -23
49 -29 4 -6 15 -11 25 -11 10 0 30 -9 44 -20 14 -11 32 -20 40 -20 7 0 22 -9
31 -19 10 -11 44 -36 77 -57 32 -20 59 -41 59 -46 0 -5 8 -11 18 -15 29 -10
82 -66 82 -86 0 -10 -23 -62 -51 -114 -43 -83 -64 -115 -112 -178 -4 -5 -21
-28 -37 -50 -71 -96 -96 -125 -107 -125 -7 0 -13 3 -13 8 -1 4 -23 32 -51 62
-191 211 -265 288 -365 378 -38 35 -78 72 -89 82 -29 28 -55 26 -55 -4 0 -13
3 -26 8 -28 4 -1 27 -28 52 -58 24 -30 63 -73 85 -96 22 -22 54 -58 70 -78 17
-21 39 -45 50 -54 75 -63 239 -246 243 -272 3 -20 -87 -115 -203 -215 -39 -33
-74 -65 -80 -71 -11 -13 -119 -89 -169 -119 -19 -11 -58 -37 -88 -57 -30 -21
-61 -38 -68 -38 -7 0 -21 -6 -29 -14 -16 -14 -47 -27 -161 -68 -30 -10 -68
-25 -85 -32 -16 -8 -58 -16 -92 -20 -35 -3 -80 -13 -100 -22 -21 -8 -88 -19
-149 -24 -61 -5 -129 -13 -150 -19 -63 -16 -322 -31 -409 -23 -75 7 -80 9 -89
34 -8 23 -6 32 12 51 28 30 37 132 12 132 -8 0 -22 -14 -30 -31 -51 -104 -186
-245 -285 -297 -116 -60 -141 -69 -212 -74 -64 -5 -76 -3 -96 14 -12 11 -33
23 -48 26 -21 5 -110 85 -164 147 -11 13 -23 48 -54 166 -6 23 -3 47 10 85 11
29 19 60 19 68 0 29 72 120 103 131 17 5 38 16 46 24 9 7 42 21 73 30 31 9 60
21 63 26 3 6 50 10 103 10 53 0 102 4 109 8 8 5 9 67 3 237 -4 127 -6 244 -4
260 2 17 8 102 15 190 6 88 16 165 21 172 5 7 16 40 23 75 26 124 -16 144
-197 97 -40 -10 -57 -10 -105 4 -32 9 -74 18 -94 21 -19 2 -53 16 -75 31 -44
30 -119 139 -129 188 -4 18 -13 51 -21 75 -24 74 5 202 71 308 41 66 112 134
139 134 6 0 23 6 38 14 75 40 339 43 410 6 21 -11 46 -20 56 -20 49 0 145 -71
213 -159 21 -27 31 -32 49 -26 48 15 4 93 -105 181 -29 24 -64 46 -78 49 -15
4 -31 13 -37 20 -7 8 -33 17 -58 21 -26 3 -58 14 -72 23 -14 9 -38 18 -54 21
-45 8 -54 32 -33 87 10 27 22 64 26 84 12 58 18 62 75 56 28 -3 62 -8 76 -12
14 -3 70 -10 125 -15 89 -8 114 -6 225 17 69 13 134 30 145 37 11 7 37 19 58
25 24 8 64 39 108 82 l69 70 0 128 c0 115 3 141 18 141 3 0 19 -8 36 -19z
m2223 -143 c-3 -7 -5 -2 -5 12 0 14 2 19 5 13 2 -7 2 -19 0 -25z m-437 -130
c0 -20 -53 -78 -72 -78 -18 0 -6 52 17 75 30 31 55 32 55 3z m-3890 -18 c0 -5
-6 -10 -12 -10 -10 0 -9 -3 1 -9 11 -7 11 -16 -4 -55 -10 -26 -22 -49 -26 -52
-13 -7 -11 93 1 117 11 20 40 27 40 9z m3965 -57 c-4 -16 -7 -28 -8 -29 -1 0
-20 -13 -42 -27 -47 -32 -55 -33 -55 -9 0 22 37 58 65 64 11 2 19 10 18 16 -2
7 4 12 13 12 13 0 15 -6 9 -27z m183 -24 c-2 -6 -8 -10 -13 -10 -5 0 -11 4
-13 10 -2 6 4 11 13 11 9 0 15 -5 13 -11z m-4050 -326 c-2 -47 -6 -57 -19 -55
-13 2 -18 -10 -24 -63 -3 -35 -4 -74 0 -85 12 -37 -14 -119 -44 -138 -14 -9
-32 -22 -39 -29 -17 -17 -49 -17 -56 0 -4 6 -4 2 -2 -10 6 -34 -9 -37 -59 -12
l-44 22 2 111 c1 61 6 117 10 124 11 16 46 15 77 -4 14 -8 18 -13 10 -11 -19
5 -37 -14 -46 -47 -4 -18 -11 -25 -20 -22 -8 3 -14 -1 -14 -8 0 -8 9 -16 19
-19 14 -3 23 3 31 24 7 16 19 29 26 29 8 0 14 4 14 10 0 5 9 18 20 28 20 18
19 52 -1 52 -4 0 -5 10 0 23 7 19 16 22 62 22 l54 0 3 38 c2 21 -2 44 -8 52
-12 14 0 23 33 24 16 1 18 -6 15 -56z m-108 -1 c0 -5 -6 -17 -14 -28 -14 -19
-15 -19 -35 3 -28 30 -27 33 14 33 19 0 35 -4 35 -8z m-95 -43 c7 -11 -22 -49
-37 -49 -10 0 -11 44 -1 53 10 10 31 8 38 -4z m4562 -171 c-3 -8 -6 -5 -6 6
-1 11 2 17 5 13 3 -3 4 -12 1 -19z m-4808 -218 c46 -7 107 -23 135 -36 72 -33
140 -101 153 -154 4 -14 15 -38 25 -55 10 -16 18 -43 18 -59 0 -15 7 -59 16
-96 14 -57 15 -78 5 -136 -6 -38 -16 -95 -20 -127 -6 -40 -20 -75 -45 -112
-36 -55 -126 -130 -181 -152 -115 -44 -121 -45 -250 -46 -127 -1 -131 -1 -196
31 -69 34 -159 114 -159 143 0 9 -9 24 -20 34 -11 10 -20 25 -20 34 0 9 -11
40 -25 69 -23 50 -25 65 -25 204 0 146 1 151 25 180 14 16 25 35 25 42 0 14
112 136 126 136 5 0 26 11 46 25 20 14 46 25 56 25 11 0 31 9 45 20 14 11 36
20 49 20 12 1 34 7 48 15 14 9 39 13 55 11 17 -2 68 -9 114 -16z m393 -89 c-5
-34 -35 -37 -40 -3 -3 18 4 24 39 31 3 0 4 -12 1 -28z m4415 -108 c-3 -10 -5
-4 -5 12 0 17 2 24 5 18 2 -7 2 -21 0 -30z m-397 -12 c0 -5 -3 -17 -6 -25 -5
-13 -9 -14 -20 -5 -21 17 -17 39 6 39 11 0 20 -4 20 -9z m-53 -138 c-3 -10 -5
-2 -5 17 0 19 2 27 5 18 2 -10 2 -26 0 -35z m10 -89 c-3 -3 -12 -4 -19 -1 -8
3 -5 6 6 6 11 1 17 -2 13 -5z m356 -115 c-5 -19 -7 -19 -15 -5 -10 18 -2 39
12 31 4 -3 6 -15 3 -26z m-4263 -269 c6 0 10 -7 10 -15 0 -8 4 -15 8 -15 5 0
13 -30 18 -67 11 -86 0 -133 -33 -133 -13 0 -23 2 -23 4 0 16 14 36 26 36 19
0 18 35 -2 54 -15 15 -27 19 -40 14 -3 -2 -10 5 -15 15 -7 12 -6 29 3 54 10
29 10 37 1 40 -15 5 -18 33 -4 33 9 0 30 72 33 117 1 15 4 -9 5 -54 2 -46 8
-83 13 -83z m4090 -114 c0 -16 -18 -31 -27 -22 -8 8 5 36 17 36 5 0 10 -6 10
-14z m-50 -45 c0 -6 -4 -13 -10 -16 -5 -3 -10 1 -10 9 0 9 5 16 10 16 6 0 10
-4 10 -9z m-4275 -111 c-3 -89 -1 -100 13 -98 22 4 41 -66 25 -90 -13 -21 -28
-18 -29 6 -2 28 -36 62 -61 62 -37 0 -23 -40 15 -43 26 -2 27 -4 7 -23 -8 -9
-15 -24 -15 -35 0 -10 -6 -19 -14 -19 -16 0 -39 -26 -42 -48 -4 -27 15 -52 40
-52 19 0 25 7 30 35 4 20 4 40 0 47 -4 6 -3 8 3 5 6 -4 16 0 23 8 25 30 48 18
52 -27 6 -51 1 -66 -19 -70 -16 -3 -48 -68 -33 -68 6 0 10 5 10 10 0 6 9 10
20 10 13 0 20 -7 20 -20 0 -10 14 -33 31 -51 36 -37 27 -60 -15 -41 -21 9 -26
8 -30 -6 -3 -10 -19 -32 -35 -50 l-30 -32 40 -10 c21 -6 39 -15 39 -19 0 -5
-19 -15 -42 -23 -53 -16 -63 -48 -23 -66 14 -7 24 -16 21 -21 -4 -5 0 -12 6
-15 7 -3 -5 -3 -27 1 -51 7 -55 10 -55 34 0 33 -17 26 -56 -26 -12 -16 -16
-17 -21 -6 -3 8 -16 24 -29 36 -13 12 -24 28 -24 34 0 6 -11 16 -25 21 -14 5
-25 15 -25 21 0 7 -17 28 -39 48 l-38 36 0 113 c0 101 2 114 19 123 11 6 26 8
33 5 20 -7 29 12 27 55 -3 45 18 67 42 44 15 -16 20 -35 17 -62 -2 -17 19 -16
42 1 12 10 17 28 17 69 0 65 -11 77 -38 42 -25 -31 -27 -31 -28 1 -2 18 5 28
22 34 16 7 24 17 24 34 0 26 16 44 22 25 8 -25 46 1 52 36 7 35 20 45 29 23 3
-7 6 -2 6 11 1 37 23 91 37 91 9 0 11 -26 9 -100z m4650 56 c11 -7 44 -19 73
-26 28 -6 52 -15 52 -19 0 -4 12 -14 28 -22 36 -18 102 -69 123 -94 9 -11 33
-38 53 -60 19 -22 36 -45 36 -51 0 -6 11 -31 24 -56 13 -25 27 -64 31 -88 4
-24 14 -58 21 -76 18 -43 18 -153 0 -201 -8 -21 -17 -56 -21 -78 -11 -65 -81
-177 -144 -232 -22 -18 -43 -33 -49 -33 -5 0 -17 -9 -27 -20 -9 -10 -33 -24
-52 -31 -19 -6 -47 -17 -61 -25 -37 -19 -190 -18 -239 1 -21 8 -67 19 -102 24
-35 6 -73 17 -86 25 -12 8 -38 18 -58 21 -25 5 -54 24 -94 64 -67 65 -103 108
-103 123 0 5 -8 22 -18 36 -27 39 -66 242 -57 300 19 124 72 270 110 302 8 7
15 18 15 25 0 34 166 146 245 166 22 5 63 16 90 24 66 18 184 19 210 1z
m-4933 -64 c-28 -65 -74 -113 -87 -92 -4 6 -3 10 2 10 15 0 12 55 -4 72 -23
25 -10 33 45 30 43 -3 50 -6 44 -20z m618 -4 c34 -38 40 -85 13 -95 -10 -4
-22 -11 -26 -17 -5 -7 -7 -3 -5 9 2 11 -5 28 -14 37 -23 23 -24 98 -1 98 2 0
17 -15 33 -32z m-420 12 c0 -5 -4 -10 -10 -10 -5 0 -10 5 -10 10 0 6 5 10 10
10 6 0 10 -4 10 -10z m277 -121 c7 -13 19 -33 28 -44 9 -11 30 -42 48 -70 18
-27 49 -67 71 -87 25 -25 36 -43 32 -54 -8 -20 -52 -11 -82 17 -11 10 -32 19
-47 19 -44 0 -75 53 -87 149 -6 45 -8 86 -4 92 9 15 27 5 41 -22z m223 -39 c0
-26 -3 -30 -29 -30 -36 0 -46 13 -26 33 8 9 15 23 15 32 0 13 4 14 20 5 13 -7
20 -21 20 -40z m3532 18 c-7 -7 -12 -8 -12 -2 0 14 12 26 19 19 2 -3 -1 -11
-7 -17z m-42 -113 c0 -14 -4 -25 -9 -25 -4 0 -6 11 -3 25 2 14 6 25 8 25 2 0
4 -11 4 -25z m-3387 -74 c12 -24 12 -31 2 -35 -13 -5 -45 33 -45 54 0 21 29 9
43 -19z m-425 -34 c2 -10 -3 -17 -12 -17 -18 0 -29 16 -21 31 9 14 29 6 33
-14z m3460 2 c-2 -6 -8 -10 -13 -10 -5 0 -11 4 -13 10 -2 6 4 11 13 11 9 0 15
-5 13 -11z m-2979 -39 c6 0 11 -4 11 -8 0 -5 -10 -8 -22 -7 -16 1 -24 9 -26
26 -2 22 -1 23 11 7 8 -10 19 -18 26 -18z m51 -56 c0 -2 -7 -4 -15 -4 -8 0
-15 4 -15 10 0 5 7 7 15 4 8 -4 15 -8 15 -10z m-435 -34 c4 -6 -5 -10 -20 -10
-15 0 -24 4 -20 10 3 6 12 10 20 10 8 0 17 -4 20 -10z m89 -6 c20 -8 11 -24
-15 -24 -10 0 -19 7 -19 15 0 16 9 19 34 9z m73 -10 c-3 -3 -12 -4 -19 -1 -8
3 -5 6 6 6 11 1 17 -2 13 -5z m69 -35 c20 -17 4 -39 -27 -39 -24 0 -29 4 -29
23 0 25 34 35 56 16z m2852 -51 c-6 -18 -28 -21 -28 -4 0 9 7 16 16 16 9 0 14
-5 12 -12z m573 -98 c10 -6 25 -23 33 -38 8 -15 30 -45 50 -67 20 -21 36 -43
36 -47 0 -4 20 -29 45 -56 46 -48 56 -78 30 -88 -8 -3 -17 -15 -20 -26 -4 -10
-26 -47 -49 -81 -46 -68 -81 -83 -117 -52 -12 12 -47 20 -105 26 -49 5 -94 15
-103 23 -9 8 -41 18 -71 23 -46 7 -56 12 -58 31 -2 12 6 34 17 48 16 21 21 41
21 90 0 55 3 65 25 83 14 11 38 22 53 26 15 3 60 30 101 60 79 59 82 60 112
45z m-741 -35 c-1 -13 -48 -26 -55 -15 -7 11 25 31 43 27 7 -1 13 -6 12 -12z
m-83 -57 c-3 -8 -6 -5 -6 6 -1 11 2 17 5 13 3 -3 4 -12 1 -19z m317 13 c8 -12
-49 -25 -65 -15 -8 5 -7 9 2 15 18 12 56 11 63 0z m-124 -11 c0 -5 -11 -10
-25 -10 -14 0 -25 5 -25 10 0 6 11 10 25 10 14 0 25 -4 25 -10z m-270 -39 c0
-6 -4 -13 -10 -16 -5 -3 -10 1 -10 9 0 9 5 16 10 16 6 0 10 -4 10 -9z m-90
-51 c0 -5 -12 -10 -26 -10 -14 0 -23 4 -19 10 3 6 15 10 26 10 10 0 19 -4 19
-10z m-2656 -35 c-6 -16 -34 -21 -34 -7 0 13 11 22 26 22 8 0 11 -6 8 -15z
m2561 -5 c4 -6 -17 -10 -57 -9 -50 1 -57 3 -33 9 44 11 83 11 90 0z m-2431
-77 c10 -25 -8 -37 -35 -22 -15 7 -19 14 -11 17 6 2 10 8 6 13 -3 5 4 9 14 9
11 0 23 -8 26 -17z m3833 -59 c32 -9 18 -31 -17 -26 -29 4 -37 12 -23 25 8 8
12 8 40 1z m-1707 -64 c19 -14 44 -36 55 -50 11 -14 32 -36 47 -49 l27 -24
-20 -28 c-13 -18 -36 -33 -62 -40 -23 -6 -66 -18 -96 -26 -71 -21 -227 -21
-272 0 -19 9 -49 18 -66 22 -18 4 -36 11 -39 17 -13 20 20 88 63 134 64 66 89
75 218 72 99 -3 113 -5 145 -28z m1669 -10 c10 0 24 -7 31 -15 17 -21 -2 -42
-43 -47 -30 -3 -32 -2 -30 27 1 16 2 39 3 50 1 18 1 19 11 3 5 -10 18 -18 28
-18z m159 -22 c2 -9 -5 -19 -17 -23 -14 -4 -21 -15 -21 -31 0 -38 33 -30 64
15 40 57 66 63 66 15 0 -23 36 -58 70 -69 10 -3 20 -16 22 -28 5 -31 -5 -82
-17 -82 -6 -1 -24 -14 -41 -29 -29 -26 -39 -29 -111 -30 -62 -1 -83 3 -96 16
-11 10 -13 18 -6 20 20 7 -41 68 -68 68 -13 0 -31 7 -40 15 -16 17 -25 10 -82
-64 -20 -26 -30 -31 -66 -31 -26 0 -47 6 -55 15 -7 8 -27 15 -44 15 -40 0 -61
14 -53 34 5 11 1 16 -13 16 -11 0 -20 5 -20 10 0 6 25 10 55 10 34 0 55 -4 55
-11 0 -8 17 -10 50 -7 27 3 47 2 45 -3 -3 -4 4 -5 15 -2 11 3 28 -1 38 -8 13
-10 14 -10 6 0 -17 19 4 81 28 81 10 0 17 -3 17 -7 -3 -20 2 -24 16 -13 8 7
12 16 9 21 -3 5 13 9 35 9 32 0 41 4 47 22 7 25 34 49 46 42 4 -3 12 5 18 16
13 24 43 23 48 -2z m-1338 -8 c0 -23 -8 -25 -32 -6 -20 15 -14 26 14 26 11 0
18 -7 18 -20z m560 0 c0 -13 59 -39 100 -42 19 -2 35 -8 35 -15 0 -21 12 -24
84 -24 60 0 72 -3 81 -19 10 -18 7 -20 -29 -20 -22 0 -43 5 -46 10 -9 15 -30
12 -53 -8 -25 -22 -90 -19 -72 3 15 19 -9 55 -35 55 -21 0 -65 -25 -55 -32 3
-2 14 -8 25 -14 11 -6 24 -26 29 -45 6 -19 16 -40 23 -47 13 -14 18 -84 6 -95
-17 -17 -33 19 -33 75 0 55 -1 59 -21 53 -15 -5 -22 -2 -26 15 -3 11 -18 27
-34 36 -33 17 -36 30 -12 56 13 14 14 21 5 30 -18 18 -14 38 8 38 11 0 20 -4
20 -10z m1087 -45 c18 -6 10 -44 -14 -69 -12 -12 -24 -43 -28 -69 -5 -31 -12
-47 -21 -47 -8 0 -17 -8 -21 -17 -3 -10 -11 -24 -17 -32 -14 -17 -36 -81 -36
-103 0 -10 -7 -18 -15 -18 -16 0 -24 28 -23 78 1 28 5 32 30 32 24 0 28 4 29
28 1 15 1 33 0 40 -1 8 4 19 12 25 22 19 43 95 29 109 -7 7 -12 9 -12 4 0 -4
-7 0 -16 9 -29 29 -10 47 43 40 27 -4 54 -8 60 -10z m-1182 -25 c8 -13 -3 -50
-15 -50 -12 0 -23 37 -15 50 3 5 10 10 15 10 5 0 12 -5 15 -10z m-742 -104
c11 -27 -5 -55 -46 -82 -32 -22 -54 -28 -94 -29 -60 0 -75 16 -25 26 18 4 43
16 55 27 26 24 89 70 98 71 4 1 9 -5 12 -13z m1059 -75 c-6 -42 -42 -42 -71
-2 -26 36 -26 40 2 50 14 6 31 4 48 -5 21 -10 25 -18 21 -43z m-1692 13 c7 -7
27 -16 46 -20 28 -5 32 -9 23 -20 -15 -18 -109 -19 -131 -1 -19 14 -26 46 -15
64 9 14 59 0 77 -23z m1370 -38 c0 -32 -19 -5 -25 34 l-6 35 15 -25 c8 -14 15
-34 16 -44z m398 -13 c3 -18 10 -23 34 -23 25 0 28 -3 19 -14 -17 -20 35 -39
90 -32 24 2 47 5 52 5 4 1 7 12 7 25 0 20 4 23 23 20 15 -4 13 -1 -8 9 -21 9
-26 15 -16 21 17 11 67 -27 63 -48 -3 -16 17 -21 65 -17 13 1 33 -3 44 -10 16
-8 23 -8 29 1 6 9 9 9 15 0 4 -6 4 -14 1 -17 -3 -3 -1 -12 4 -18 7 -9 6 -16
-5 -25 -12 -10 -15 -9 -16 6 0 15 -3 14 -12 -6 -6 -14 -17 -29 -24 -33 -24
-15 -13 -27 23 -27 19 0 33 -4 30 -8 -9 -14 14 -82 27 -82 7 0 6 -4 -3 -10
-12 -8 -10 -10 8 -10 13 0 21 4 18 9 -8 13 40 61 62 61 10 0 24 6 31 12 10 11
12 6 9 -22 -2 -25 -10 -38 -25 -45 -13 -5 -23 -13 -23 -17 0 -5 -28 -8 -62 -8
-45 0 -59 3 -48 10 11 7 4 10 -25 10 -34 0 -41 3 -42 21 -3 31 -40 66 -76 72
-18 3 -45 9 -62 13 -16 4 -27 4 -24 0 9 -10 -36 -57 -56 -60 -9 -1 -20 -8 -24
-15 -10 -15 -151 -27 -203 -17 -24 4 -39 14 -46 32 -15 31 -16 27 8 54 25 29
21 45 -10 45 -18 0 -26 8 -31 29 -9 34 -2 53 14 37 26 -26 133 7 123 38 -20
65 -21 63 10 59 21 -2 30 -9 32 -25z m-1379 -29 c2 -2 -52 -3 -120 -2 -113 1
-117 2 -49 8 69 5 159 2 169 -6z m-243 -110 c40 -17 48 -28 30 -43 -19 -16
-66 3 -73 29 -3 11 -12 20 -19 20 -8 0 -14 5 -14 11 0 11 19 7 76 -17z m344
22 c0 -2 -7 -7 -16 -10 -8 -3 -12 -2 -9 4 6 10 25 14 25 6z m1753 -8 c25 -19
12 -58 -19 -58 -25 0 -28 9 -18 48 7 25 13 27 37 10z m-1793 -26 c0 -11 -14
-24 -35 -34 -29 -13 -38 -13 -52 -3 -22 16 -16 23 34 40 50 18 53 18 53 -3z
m1930 -1 c0 -11 -5 -32 -11 -48 l-12 -28 -9 33 c-6 24 -5 38 3 48 16 20 29 17
29 -5z m-317 -79 c30 -2 36 -24 13 -47 -12 -12 -25 -12 -92 0 -43 9 -80 18
-83 20 -2 3 3 11 13 18 15 11 69 14 149 9z m-2953 -298 c0 -60 -16 -72 -37
-27 -16 35 -16 39 3 68 23 35 34 22 34 -41z"/>
<path d="M3920 5375 c0 -9 6 -12 15 -9 8 4 12 10 9 15 -8 14 -24 10 -24 -6z"/>
<path d="M4011 5321 c-7 -5 -21 -7 -30 -4 -11 3 -24 -5 -33 -19 -16 -24 -16
-24 22 -26 29 -2 44 3 59 20 12 12 21 25 21 30 0 10 -21 10 -39 -1z"/>
<path d="M4077 5323 c-12 -12 -7 -22 8 -17 8 4 15 10 15 15 0 11 -14 12 -23 2z"/>
<path d="M3143 5246 c-14 -6 -23 -20 -23 -34 0 -13 -4 -20 -10 -17 -5 3 -10
-1 -10 -9 0 -24 43 -4 58 27 13 26 42 38 42 17 0 -5 5 -10 10 -10 19 0 10 17
-15 28 -14 7 -27 11 -28 11 -1 -1 -12 -6 -24 -13z"/>
<path d="M2473 5285 c-11 -12 -8 -25 8 -25 10 0 20 28 11 34 -4 2 -12 -2 -19
-9z"/>
<path d="M4254 4648 c-30 -14 -44 -50 -44 -108 0 -60 17 -80 72 -80 32 0 47 7
74 34 43 43 46 90 8 135 -27 33 -68 40 -110 19z"/>
<path d="M1453 4387 c-24 -17 -31 -29 -30 -52 2 -36 14 -46 45 -38 22 5 24 3
21 -30 -4 -42 2 -51 30 -42 17 5 21 15 21 49 0 36 -4 45 -25 54 -27 12 -31 32
-15 63 14 26 -5 24 -47 -4z"/>
<path d="M1280 4238 c0 -16 -4 -28 -10 -28 -5 0 -10 -11 -10 -25 0 -14 5 -25
10 -25 6 0 10 -7 10 -15 0 -25 19 -17 35 16 17 32 12 94 -7 83 -6 -4 -14 0
-19 7 -6 10 -9 6 -9 -13z"/>
<path d="M1364 4175 c-4 -8 -3 -23 2 -32 4 -10 9 -35 10 -56 2 -36 10 -56 18
-46 2 2 6 37 10 77 6 68 5 72 -14 72 -11 0 -23 -7 -26 -15z"/>
<path d="M4045 2520 c-3 -5 -1 -10 4 -10 6 0 11 5 11 10 0 6 -2 10 -4 10 -3 0
-8 -4 -11 -10z"/>
<path d="M1190 3440 c-6 -11 -17 -20 -25 -20 -7 0 -22 -11 -33 -25 -11 -14
-27 -25 -35 -25 -36 0 -47 -12 -47 -51 0 -46 20 -52 57 -17 20 18 23 19 23 5
0 -18 25 -23 35 -7 3 5 -2 21 -12 36 l-17 27 31 -5 c18 -2 31 -2 31 1 -1 8 11
41 23 63 5 10 9 22 9 28 0 18 -29 11 -40 -10z"/>
<path d="M881 1744 c0 -11 3 -14 6 -6 3 7 2 16 -1 19 -3 4 -6 -2 -5 -13z"/>
<path d="M793 1633 c-7 -15 -11 -28 -9 -31 6 -5 46 36 46 48 0 20 -25 9 -37
-17z"/>
<path d="M865 1600 c-3 -5 -3 -15 1 -21 6 -11 23 6 24 24 0 10 -18 9 -25 -3z"/>
<path d="M830 1560 c0 -5 5 -10 10 -10 6 0 10 5 10 10 0 6 -4 10 -10 10 -5 0
-10 -4 -10 -10z"/>
<path d="M867 1533 c-24 -24 46 -90 84 -80 10 3 23 -1 30 -9 6 -8 17 -14 23
-14 8 0 8 2 0 8 -6 4 -11 22 -11 40 0 38 -17 54 -49 46 -12 -3 -25 -1 -28 5
-8 12 -39 15 -49 4z"/>
<path d="M4880 792 c0 -10 36 -9 46 1 4 4 -5 7 -19 7 -15 0 -27 -4 -27 -8z"/>
<path d="M4866 505 c-14 -13 -26 -26 -26 -28 0 -1 16 -1 35 1 26 3 35 9 35 23
0 29 -15 30 -44 4z"/>
<path d="M4792 468 c-6 -6 -12 -16 -12 -20 0 -10 59 -9 85 2 16 7 13 9 -17 9
-20 1 -38 6 -40 11 -2 7 -8 6 -16 -2z"/>
<path d="M2237 5116 c5 -25 58 -86 75 -86 4 0 8 11 8 25 0 15 -6 25 -14 25 -9
0 -16 12 -18 28 -2 21 -9 28 -29 30 -23 3 -26 0 -22 -22z"/>
<path d="M2151 4992 c-6 -12 -11 -35 -11 -52 0 -30 -1 -31 -34 -25 -19 4 -36
2 -40 -3 -9 -16 12 -62 28 -62 8 0 18 -9 21 -20 7 -24 23 -26 31 -5 4 8 17 15
30 15 21 0 23 4 18 29 -8 38 12 49 37 22 11 -12 24 -19 30 -16 15 10 10 45 -6
45 -9 0 -20 11 -25 25 -5 14 -14 25 -19 25 -6 0 -19 9 -30 21 l-19 21 -11 -20z"/>
<path d="M5101 4516 c-12 -14 -5 -26 15 -26 17 0 25 27 9 34 -7 2 -18 -1 -24
-8z"/>
<path d="M5270 3593 c0 -4 4 -14 8 -21 10 -15 45 -5 39 12 -4 13 -47 21 -47 9z"/>
<path d="M1300 1410 c0 -5 5 -10 11 -10 5 0 7 5 4 10 -3 6 -8 10 -11 10 -2 0
-4 -4 -4 -10z"/>
<path d="M1520 1073 c0 -42 11 -54 33 -38 26 19 19 59 -10 63 -19 3 -23 -1
-23 -25z"/>
<path d="M2140 821 c33 -4 40 -8 27 -13 -13 -6 -16 -14 -12 -28 4 -12 2 -27
-4 -34 -6 -8 -9 -21 -5 -30 12 -32 24 -15 24 34 0 28 4 50 9 50 5 0 11 7 15
15 4 12 -4 15 -47 13 l-52 -1 45 -6z"/>
<path d="M2080 701 c0 -11 -4 -23 -10 -26 -5 -3 -10 -13 -10 -21 0 -8 5 -14
10 -14 6 0 10 9 10 19 0 11 5 23 10 26 6 3 10 13 10 21 0 8 -4 14 -10 14 -5 0
-10 -9 -10 -19z"/>
<path d="M1790 635 c0 -18 5 -25 20 -25 15 0 20 7 20 25 0 18 -5 25 -20 25
-15 0 -20 -7 -20 -25z"/>
<path d="M1866 621 c-4 -6 -4 -27 0 -46 13 -70 -60 -104 -94 -45 -21 37 -30
38 -38 4 -8 -32 7 -80 24 -76 7 1 12 -7 12 -18 0 -11 -4 -20 -10 -20 -5 0 -10
-10 -10 -22 0 -17 3 -19 9 -10 7 11 9 10 15 -3 11 -28 28 -5 22 30 -8 39 1 65
21 65 8 0 12 -4 8 -9 -3 -5 -2 -42 2 -83 8 -71 8 -72 14 -28 l6 45 1 -54 c1
-30 5 -51 9 -48 3 4 12 -1 18 -10 11 -15 15 -15 29 -4 18 15 23 96 6 106 -5 3
-10 33 -10 65 0 48 3 60 18 65 28 8 54 85 30 85 -40 0 -48 -2 -48 -15 0 -8 -5
-15 -11 -15 -5 0 -7 4 -4 10 3 5 2 17 -3 26 -6 11 -11 13 -16 5z m1 -283 c-2
-13 -4 -3 -4 22 0 25 2 35 4 23 2 -13 2 -33 0 -45z"/>
<path d="M2020 598 c0 -21 -4 -38 -10 -38 -5 0 -10 -6 -10 -14 0 -9 7 -12 20
-9 14 4 20 0 20 -10 0 -19 25 -33 60 -32 21 0 26 6 31 35 3 19 0 46 -7 60 -10
22 -19 26 -51 25 -21 0 -41 4 -45 10 -4 5 -8 -7 -8 -27z"/>
<path d="M2061 463 c-1 -12 4 -25 9 -28 12 -7 12 2 0 30 -8 19 -9 19 -9 -2z"/>
<path d="M4400 432 c-21 -7 -30 -24 -24 -45 3 -9 1 -32 -5 -50 -6 -17 -15 -66
-19 -107 -6 -52 -20 -99 -45 -152 l-36 -78 74 0 75 0 0 55 c0 52 2 55 24 55
38 0 56 -10 56 -32 0 -34 32 -78 57 -78 23 0 29 17 25 78 0 12 3 22 8 22 10 0
30 -55 30 -81 0 -17 9 -19 70 -19 l70 0 0 34 c0 18 -9 45 -20 59 -11 14 -20
37 -20 51 0 23 -4 26 -36 26 -34 0 -95 26 -103 43 -2 5 -24 30 -50 57 -26 27
-58 73 -70 104 -24 57 -35 67 -61 58z m106 -188 c31 -8 33 -44 3 -44 -16 0
-20 5 -16 20 3 13 0 20 -8 20 -19 0 -28 17 -18 33 5 9 8 7 11 -5 2 -10 14 -21
28 -24z m-9 -61 c2 -6 -5 -17 -16 -23 -19 -10 -21 -8 -21 15 0 19 5 26 17 23
9 -2 18 -8 20 -15z m75 -75 c-10 -10 -42 0 -42 12 0 5 5 21 11 37 l11 28 14
-34 c8 -19 11 -38 6 -43z"/>
<path d="M3883 370 c-23 -9 -23 -10 -5 -42 18 -31 22 -33 76 -33 66 -1 84 -16
61 -52 -8 -12 -15 -33 -15 -45 1 -28 48 -84 60 -72 13 13 30 141 23 175 -9 48
-44 71 -115 75 -35 2 -73 0 -85 -6z"/>
<path d="M1700 289 c0 -14 -3 -28 -6 -32 -9 -9 -12 -177 -3 -177 5 0 9 -18 9
-40 0 -38 2 -40 30 -40 26 0 30 4 30 26 0 16 -4 23 -11 18 -7 -4 -10 1 -7 12
2 10 11 20 21 22 14 3 17 -4 17 -37 l0 -41 64 0 65 0 6 48 c4 26 12 52 19 57
8 7 9 27 2 75 -6 36 -12 55 -14 43 -5 -31 -62 -34 -62 -3 0 11 -4 20 -10 20
-5 0 -10 -16 -10 -36 0 -20 -4 -33 -10 -29 -5 3 -25 2 -43 -3 -33 -9 -34 -8
-47 27 -7 20 -15 49 -17 66 -4 39 -23 58 -23 24z m40 -169 c0 -22 -4 -40 -10
-40 -5 0 -10 18 -10 40 0 22 5 40 10 40 6 0 10 -18 10 -40z"/>
<path d="M2013 283 c-15 -6 -17 -33 -3 -33 6 0 10 7 10 15 0 8 5 15 10 15 6 0
10 -7 10 -15 0 -8 9 -15 20 -15 13 0 20 7 20 20 0 15 -6 20 -27 19 -16 0 -34
-3 -40 -6z"/>
<path d="M2040 236 c0 -2 9 -6 20 -9 11 -3 20 -1 20 4 0 5 -9 9 -20 9 -11 0
-20 -2 -20 -4z"/>
<path d="M3911 59 l-52 -59 70 0 c64 0 72 2 87 24 23 36 15 67 -22 82 -30 13
-31 12 -83 -47z"/>
<path d="M1632 60 c0 -14 2 -19 5 -12 2 6 2 18 0 25 -3 6 -5 1 -5 -13z"/>
</g>
</svg>
